<svg width="476" height="285" viewBox="0 0 476 285" fill="none" xmlns="http://www.w3.org/2000/svg">
<g clip-path="url(#clip0_26_996)">
<path d="M364.171 281.271C358.09 276.132 354.396 268.014 355.365 260.111C356.333 252.208 362.333 244.943 370.116 243.265C377.899 241.587 386.77 246.232 389.134 253.835C390.435 239.177 391.934 223.904 399.727 211.422C406.784 200.119 419.005 192.031 432.25 190.584C445.496 189.137 459.442 194.602 467.702 205.057C475.963 215.512 477.986 230.711 472.2 242.715C467.938 251.557 460.086 258.137 451.859 263.491C425.274 280.645 393.389 287.621 362.071 283.135L364.171 281.271Z" fill="#F2F2F2"/>
<path d="M454.605 194.905C443.675 203.807 433.649 213.764 424.671 224.631C410.619 241.579 399.249 260.581 390.955 280.975C390.348 282.463 392.764 283.111 393.364 281.64C406.934 248.495 428.597 219.281 456.371 196.671C457.618 195.656 455.841 193.897 454.605 194.905Z" fill="white"/>
<path d="M153.41 279.875C161.763 272.817 166.836 261.666 165.506 250.812C164.175 239.957 155.934 229.978 145.245 227.673C134.555 225.368 122.37 231.749 119.123 242.192C117.336 222.059 115.277 201.082 104.574 183.936C94.8818 168.412 78.0955 157.303 59.903 155.316C41.7104 153.329 22.556 160.834 11.2099 175.194C-0.136116 189.554 -2.91414 210.431 5.03232 226.917C10.8862 239.062 21.6711 248.101 32.971 255.454C69.0217 278.913 113.742 288.697 156.295 282.435" fill="#F2F2F2"/>
<path d="M29.2001 161.251C44.2112 173.478 57.9823 187.153 70.3143 202.079C82.6481 216.989 93.5068 233.061 102.738 250.068C107.897 259.608 112.532 269.423 116.622 279.469C117.456 281.512 114.138 282.402 113.313 280.381C106.069 262.671 97.1073 245.713 86.5555 229.751C76.055 213.847 64.0366 198.999 50.6691 185.416C43.1085 177.737 35.1313 170.48 26.7738 163.677C25.0607 162.282 27.5012 159.867 29.2001 161.251Z" fill="white"/>
<path d="M341.463 283.861H142.181V79.3809C142.181 35.8762 177.573 0.482666 221.075 0.482666H262.569C306.071 0.482666 341.463 35.8762 341.463 79.3809V283.861Z" fill="#F2F2F2"/>
<path d="M299.968 283.861H142.181V79.3809C142.137 62.7109 147.416 46.4622 157.248 33.0006C157.61 32.5065 157.971 32.0189 158.344 31.5366C163.1 25.2991 168.759 19.8057 175.135 15.238C175.496 14.9759 175.857 14.7184 176.224 14.4608C181.56 10.7684 187.331 7.7499 193.407 5.47406C193.768 5.33729 194.135 5.20025 194.503 5.06881C199.998 3.10759 205.695 1.76416 211.487 1.06334C211.846 1.01428 212.215 0.975889 212.584 0.937499C218.229 0.333903 223.922 0.333903 229.567 0.937499C229.934 0.975889 230.303 1.01427 230.666 1.06386C236.457 1.76474 242.152 3.108 247.646 5.06884C248.014 5.20028 248.381 5.33731 248.743 5.47434C254.744 7.72148 260.448 10.6949 265.727 14.3283C266.093 14.5803 266.46 14.8378 266.822 15.0953C270.396 17.6467 273.753 20.4891 276.859 23.5934C279.35 26.0834 281.671 28.7377 283.806 31.5383C284.178 32.019 284.539 32.5066 284.901 32.9998C294.733 46.4616 300.012 62.7106 299.968 79.3809V283.861Z" fill="#CCCCCC"/>
<path d="M287.138 192.405C291.963 192.405 295.874 188.493 295.874 183.668C295.874 178.844 291.963 174.932 287.138 174.932C282.313 174.932 278.402 178.844 278.402 183.668C278.402 188.493 282.313 192.405 287.138 192.405Z" fill="#3B82F6"/>
<path d="M325.137 277.736H318.443L315.259 251.917L325.138 251.917L325.137 277.736Z" fill="#FFB8B8"/>
<path d="M313.663 275.824H326.572V283.952H305.535C305.535 282.885 305.745 281.828 306.153 280.841C306.562 279.855 307.161 278.959 307.915 278.204C308.67 277.45 309.566 276.851 310.552 276.442C311.538 276.034 312.595 275.824 313.663 275.824Z" fill="#2F2E41"/>
<path d="M358.442 277.736H351.748L348.563 251.917L358.443 251.917L358.442 277.736Z" fill="#FFB8B8"/>
<path d="M346.967 275.824H359.876V283.952H338.839C338.839 282.885 339.049 281.828 339.458 280.841C339.866 279.855 340.465 278.959 341.219 278.204C341.974 277.45 342.87 276.851 343.856 276.442C344.842 276.034 345.899 275.824 346.967 275.824Z" fill="#2F2E41"/>
<path d="M291.559 185.399C291.078 184.69 290.757 183.883 290.621 183.036C290.485 182.19 290.536 181.324 290.771 180.499C291.006 179.674 291.419 178.911 291.98 178.263C292.542 177.615 293.239 177.098 294.022 176.749L316.776 114.031L327.972 120.141L301.992 180.077C302.492 181.431 302.478 182.922 301.952 184.267C301.426 185.611 300.425 186.716 299.139 187.372C297.853 188.028 296.371 188.19 294.974 187.826C293.577 187.462 292.362 186.599 291.559 185.399Z" fill="#FFB8B8"/>
<path d="M355.023 197.184C354.279 196.758 353.638 196.173 353.144 195.472C352.651 194.771 352.317 193.97 352.166 193.126C352.016 192.282 352.052 191.415 352.273 190.586C352.493 189.757 352.893 188.987 353.444 188.33L346.395 121.985L359.136 122.567L362.066 187.826C363.109 188.824 363.75 190.17 363.867 191.609C363.984 193.048 363.569 194.48 362.701 195.633C361.833 196.787 360.572 197.582 359.157 197.868C357.742 198.154 356.271 197.91 355.023 197.184Z" fill="#FFB8B8"/>
<path d="M334.696 102.413C342.102 102.413 348.106 96.4094 348.106 89.0029C348.106 81.5965 342.102 75.5924 334.696 75.5924C327.29 75.5924 321.286 81.5965 321.286 89.0029C321.286 96.4094 327.29 102.413 334.696 102.413Z" fill="#FFB8B8"/>
<path d="M354.937 182.095H314.509L314.558 181.781C314.631 181.31 321.763 134.584 316.503 119.298C315.975 117.795 316.021 116.151 316.633 114.681C317.245 113.211 318.379 112.019 319.816 111.335C327.335 107.794 341.769 103.434 353.951 114.015C355.744 115.598 357.143 117.576 358.04 119.793C358.936 122.011 359.304 124.406 359.116 126.79L354.937 182.095Z" fill="#3B82F6"/>
<path d="M322.274 141.49L304.073 137.797L312.604 117.578C313.115 115.62 314.381 113.944 316.126 112.918C317.87 111.893 319.95 111.601 321.91 112.106C323.869 112.612 325.548 113.875 326.578 115.617C327.608 117.359 327.905 119.438 327.403 121.399L322.274 141.49Z" fill="#3B82F6"/>
<path d="M345.585 148.346L344.491 123.262C343.661 118.546 346.36 114.089 350.511 113.36C354.664 112.634 358.718 115.905 359.552 120.655L363.665 144.094L345.585 148.346Z" fill="#3B82F6"/>
<path d="M353.592 179.092C360.097 203.868 360.807 235.369 359.052 269.73L350.316 268.638L334.483 203.117L325.747 269.73L315.92 269.184C312.984 233.131 310.125 202.18 314.828 181.822L353.592 179.092Z" fill="#2F2E41"/>
<path d="M343.531 99.367C341.03 102.032 336.384 100.601 336.058 96.9606C336.032 96.678 336.034 96.3935 336.063 96.1112C336.232 94.4985 337.163 93.0344 336.94 91.3316C336.889 90.9079 336.732 90.504 336.481 90.1583C334.488 87.4887 329.808 91.3524 327.927 88.9357C326.773 87.4538 328.129 85.1206 327.244 83.4644C326.076 81.2784 322.615 82.3567 320.444 81.1596C318.03 79.8276 318.174 76.1225 319.764 73.8689C321.702 71.1205 325.101 69.654 328.457 69.4426C331.814 69.2313 335.147 70.1386 338.281 71.3599C341.841 72.7475 345.372 74.6652 347.563 77.796C350.227 81.6034 350.484 86.7221 349.151 91.1741C348.341 93.8824 345.574 97.1907 343.531 99.367Z" fill="#2F2E41"/>
<path d="M459.111 284.212H56.0193C55.8472 284.212 55.6823 284.143 55.5608 284.021C55.4393 283.899 55.3711 283.734 55.3711 283.562C55.3711 283.39 55.4393 283.225 55.5608 283.103C55.6823 282.981 55.8472 282.913 56.0193 282.912H459.111C459.283 282.913 459.448 282.981 459.569 283.103C459.691 283.225 459.759 283.39 459.759 283.562C459.759 283.734 459.691 283.899 459.569 284.021C459.448 284.143 459.283 284.212 459.111 284.212Z" fill="#3F3D56"/>
<path d="M256.563 224.619H185.586C184.651 224.624 183.753 224.258 183.087 223.601C182.422 222.945 182.044 222.051 182.037 221.116V62.6814C182.044 61.7466 182.422 60.8528 183.087 60.1961C183.753 59.5395 184.651 59.1735 185.586 59.1785H256.563C257.498 59.1735 258.396 59.5395 259.062 60.1961C259.727 60.8528 260.105 61.7466 260.112 62.6814V221.116C260.105 222.051 259.727 222.945 259.062 223.601C258.396 224.258 257.498 224.624 256.563 224.619Z" fill="white"/>
<path d="M260.112 110.443H182.037V111.535H260.112V110.443Z" fill="#CCCCCC"/>
<path d="M260.385 172.748H182.311V173.84H260.385V172.748Z" fill="#CCCCCC"/>
<path d="M207.698 59.1786H206.606V225.165H207.698V59.1786Z" fill="#CCCCCC"/>
<path d="M234.997 59.1786H233.905V225.165H234.997V59.1786Z" fill="#CCCCCC"/>
</g>
<defs>
<clipPath id="clip0_26_996">
<rect width="475" height="284" fill="white" transform="translate(0.5 0.482666)"/>
</clipPath>
</defs>
</svg>
