<svg width="62" height="60" viewBox="0 0 62 60" fill="none" xmlns="http://www.w3.org/2000/svg">
<g clip-path="url(#clip0_46_1774)">
<path d="M39.1686 13.4938H22.5436C22.1648 13.4943 21.8016 13.6444 21.5337 13.9113C21.2658 14.1782 21.1151 14.54 21.1146 14.9175V51.7285L20.9241 51.7864L16.8457 53.0307C16.6524 53.0894 16.4437 53.0693 16.2652 52.9749C16.0868 52.8804 15.9533 52.7192 15.894 52.5267L3.76275 13.0487C3.70371 12.8561 3.72383 12.6481 3.81869 12.4703C3.91355 12.2925 4.07538 12.1595 4.26862 12.1005L10.5534 10.1833L28.7731 4.62726L35.0578 2.71006C35.1535 2.68073 35.254 2.67049 35.3536 2.6799C35.4532 2.68932 35.55 2.71822 35.6384 2.76494C35.7268 2.81166 35.8051 2.87529 35.8688 2.95219C35.9325 3.02909 35.9803 3.11775 36.0096 3.21309L39.1105 13.304L39.1686 13.4938Z" fill="#E5E7EB"/>
<path d="M42.7967 13.3042L39.0594 1.14231C38.9972 0.939673 38.8955 0.751226 38.7602 0.58774C38.6249 0.424254 38.4586 0.288934 38.2708 0.189511C38.083 0.0900882 37.8773 0.0285106 37.6656 0.00829954C37.4539 -0.0119116 37.2402 0.00963984 37.0369 0.07172L28.2009 2.76623L9.98212 8.32325L1.14614 11.0187C0.735669 11.1443 0.391974 11.427 0.190498 11.8047C-0.0109772 12.1825 -0.0537734 12.6245 0.0715053 13.0337L12.8449 54.5979C12.9466 54.9282 13.152 55.2173 13.4308 55.4227C13.7096 55.6282 14.0471 55.7393 14.3939 55.7396C14.5544 55.7397 14.714 55.7157 14.8674 55.6685L20.9244 53.8215L21.115 53.7626V53.5643L20.9244 53.6222L14.8112 55.4872C14.4489 55.5972 14.0575 55.5596 13.723 55.3825C13.3885 55.2055 13.1381 54.9035 13.0268 54.5428L0.254456 12.9777C0.199305 12.7989 0.180084 12.6111 0.197892 12.425C0.215699 12.2389 0.270185 12.0581 0.358233 11.8929C0.44628 11.7278 0.566159 11.5816 0.711002 11.4627C0.855845 11.3438 1.02281 11.2545 1.20233 11.2L10.0383 8.50453L28.2571 2.94846L37.0931 0.253001C37.2293 0.211601 37.3708 0.190492 37.5132 0.19036C37.8187 0.191043 38.116 0.289177 38.3615 0.470386C38.607 0.651596 38.7878 0.906359 38.8774 1.19736L42.5976 13.3042L42.6567 13.494H42.8548L42.7967 13.3042Z" fill="#3F3D56"/>
<path d="M11.6876 12.1315C11.5039 12.1314 11.3252 12.0727 11.1776 11.9639C11.0299 11.8552 10.9211 11.7021 10.8672 11.5273L9.64012 7.53422C9.60715 7.42696 9.59571 7.31428 9.60645 7.20262C9.61719 7.09095 9.64991 6.98249 9.70274 6.88342C9.75556 6.78435 9.82746 6.69662 9.91432 6.62524C10.0012 6.55386 10.1013 6.50023 10.209 6.4674L26.9701 1.35516C27.1875 1.28906 27.4224 1.3116 27.6232 1.41785C27.8239 1.52409 27.9742 1.70535 28.041 1.92184L29.268 5.91495C29.3343 6.13157 29.3117 6.36555 29.2051 6.56556C29.0984 6.76556 28.9165 6.91526 28.6992 6.98181L11.9381 12.0941C11.8569 12.1189 11.7725 12.1315 11.6876 12.1315Z" fill="#6B7280"/>
<path d="M18.1153 4.26667C19.1676 4.26667 20.0206 3.41681 20.0206 2.36846C20.0206 1.3201 19.1676 0.470245 18.1153 0.470245C17.063 0.470245 16.21 1.3201 16.21 2.36846C16.21 3.41681 17.063 4.26667 18.1153 4.26667Z" fill="#6B7280"/>
<path d="M18.1157 3.57046C18.782 3.57046 19.3222 3.0323 19.3222 2.36845C19.3222 1.7046 18.782 1.16644 18.1157 1.16644C17.4494 1.16644 16.9092 1.7046 16.9092 2.36845C16.9092 3.0323 17.4494 3.57046 18.1157 3.57046Z" fill="white"/>
<path d="M57.4113 55.2545H25.2111C24.9964 55.2542 24.7906 55.1692 24.6388 55.0179C24.487 54.8667 24.4016 54.6616 24.4014 54.4477V16.0089C24.4016 15.7951 24.487 15.59 24.6388 15.4388C24.7906 15.2875 24.9964 15.2024 25.2111 15.2022H57.4113C57.6259 15.2025 57.8318 15.2875 57.9836 15.4388C58.1354 15.59 58.2208 15.7951 58.221 16.0089V54.4477C58.2208 54.6616 58.1354 54.8667 57.9836 55.0179C57.8318 55.1692 57.6259 55.2542 57.4113 55.2545Z" fill="#D1D5DB"/>
<path d="M42.597 13.304H22.5434C22.114 13.3046 21.7024 13.4748 21.3988 13.7772C21.0953 14.0797 20.9244 14.4897 20.9238 14.9175V53.622L21.1144 53.5641V14.9175C21.1148 14.54 21.2655 14.1782 21.5334 13.9113C21.8013 13.6444 22.1645 13.4943 22.5434 13.4938H42.6561L42.597 13.304ZM60.0784 13.304H22.5434C22.114 13.3046 21.7024 13.4748 21.3988 13.7772C21.0953 14.0797 20.9244 14.4897 20.9238 14.9175V58.3865C20.9244 58.8143 21.0953 59.2243 21.3988 59.5268C21.7024 59.8292 22.114 59.9994 22.5434 60H60.0784C60.5077 59.9994 60.9193 59.8292 61.2229 59.5268C61.5265 59.2243 61.6973 58.8143 61.6979 58.3865V14.9175C61.6973 14.4897 61.5265 14.0797 61.2229 13.7772C60.9193 13.4748 60.5077 13.3046 60.0784 13.304ZM61.5074 58.3865C61.5069 58.764 61.3562 59.1258 61.0884 59.3927C60.8205 59.6596 60.4573 59.8097 60.0784 59.8102H22.5434C22.1645 59.8097 21.8013 59.6596 21.5334 59.3927C21.2655 59.1258 21.1148 58.764 21.1144 58.3865V14.9175C21.1148 14.54 21.2655 14.1782 21.5334 13.9113C21.8013 13.6444 22.1645 13.4943 22.5434 13.4938H60.0784C60.4573 13.4943 60.8205 13.6444 61.0884 13.9113C61.3562 14.1782 61.5069 14.54 61.5074 14.9175V58.3865Z" fill="#3F3D56"/>
<path d="M50.0759 17.48H32.5469C32.3195 17.4798 32.1016 17.3897 31.9409 17.2296C31.7801 17.0694 31.6897 16.8523 31.6895 16.6258V12.4498C31.6897 12.2233 31.7801 12.0062 31.9409 11.8461C32.1016 11.6859 32.3195 11.5958 32.5469 11.5956H50.0759C50.3032 11.5958 50.5212 11.6859 50.6819 11.8461C50.8426 12.0062 50.9331 12.2233 50.9333 12.4498V16.6258C50.9331 16.8523 50.8426 17.0694 50.6819 17.2296C50.5212 17.3897 50.3032 17.4798 50.0759 17.48Z" fill="#6B7280"/>
<path d="M41.3106 11.8803C42.3629 11.8803 43.2159 11.0305 43.2159 9.9821C43.2159 8.93375 42.3629 8.08389 41.3106 8.08389C40.2583 8.08389 39.4053 8.93375 39.4053 9.9821C39.4053 11.0305 40.2583 11.8803 41.3106 11.8803Z" fill="#6B7280"/>
<path d="M41.3109 11.1383C41.9519 11.1383 42.4714 10.6207 42.4714 9.98212C42.4714 9.34357 41.9519 8.82593 41.3109 8.82593C40.67 8.82593 40.1504 9.34357 40.1504 9.98212C40.1504 10.6207 40.67 11.1383 41.3109 11.1383Z" fill="white"/>
</g>
<defs>
<clipPath id="clip0_46_1774">
<rect width="61.6981" height="60" fill="white"/>
</clipPath>
</defs>
</svg>
