<svg width="30" height="30" viewBox="0 0 30 30" fill="none" xmlns="http://www.w3.org/2000/svg">
<path d="M12.3434 3.57471C13.7806 2.03691 16.2193 2.03691 17.6566 3.57471C18.5706 4.55262 19.8626 5.0878 21.2004 5.04259C23.3041 4.9715 25.0285 6.69592 24.9574 8.7996C24.9122 10.1374 25.4474 11.4294 26.4253 12.3434C27.9631 13.7806 27.9631 16.2193 26.4253 17.6566C25.4474 18.5706 24.9122 19.8626 24.9574 21.2004C25.0285 23.3041 23.3041 25.0285 21.2004 24.9574C19.8626 24.9122 18.5706 25.4474 17.6566 26.4253C16.2194 27.9631 13.7807 27.9631 12.3434 26.4253C11.4294 25.4474 10.1374 24.9122 8.7996 24.9574C6.69592 25.0285 4.9715 23.3041 5.04259 21.2004C5.0878 19.8626 4.55262 18.5706 3.57471 17.6566C2.03691 16.2194 2.03691 13.7806 3.57471 12.3434C4.55262 11.4294 5.0878 10.1374 5.04259 8.7996C4.9715 6.69592 6.69592 4.9715 8.7996 5.04259C10.1374 5.0878 11.4294 4.55262 12.3434 3.57471Z" fill="url(#paint0_linear_82_1614)" stroke="#B45309"/>
<path d="M14.5888 20.1392C13.8464 20.1392 13.1851 20.0116 12.6051 19.7564C12.0284 19.4979 11.5727 19.1432 11.2379 18.6925C10.9065 18.2384 10.7358 17.7147 10.7259 17.1214H12.8935C12.9067 17.37 12.9879 17.5888 13.1371 17.7777C13.2895 17.9633 13.4917 18.1075 13.7436 18.2102C13.9955 18.313 14.2789 18.3643 14.5938 18.3643C14.9219 18.3643 15.2119 18.3063 15.4638 18.1903C15.7157 18.0743 15.9129 17.9136 16.0554 17.7081C16.1979 17.5026 16.2692 17.2656 16.2692 16.9972C16.2692 16.7254 16.1929 16.4851 16.0405 16.2763C15.8913 16.0642 15.6759 15.8984 15.3942 15.7791C15.1158 15.6598 14.7843 15.6001 14.3999 15.6001H13.4503V14.0192H14.3999C14.7247 14.0192 15.0114 13.9628 15.2599 13.8501C15.5118 13.7375 15.7074 13.5817 15.8466 13.3828C15.9858 13.1806 16.0554 12.9453 16.0554 12.6768C16.0554 12.4216 15.9941 12.1979 15.8714 12.0057C15.7521 11.8101 15.5831 11.6577 15.3643 11.5483C15.1489 11.4389 14.897 11.3842 14.6087 11.3842C14.317 11.3842 14.0502 11.4373 13.8082 11.5433C13.5663 11.6461 13.3724 11.7936 13.2266 11.9858C13.0807 12.178 13.0028 12.4034 12.9929 12.6619H10.9297C10.9396 12.0753 11.107 11.5582 11.4318 11.1108C11.7566 10.6634 12.1941 10.3137 12.7443 10.0618C13.2978 9.80658 13.9226 9.67898 14.6186 9.67898C15.3213 9.67898 15.9361 9.80658 16.4631 10.0618C16.9901 10.317 17.3994 10.6617 17.6911 11.0959C17.986 11.5268 18.1319 12.0107 18.1286 12.5476C18.1319 13.1177 17.9545 13.5933 17.5966 13.9744C17.242 14.3556 16.7796 14.5975 16.2095 14.7003V14.7798C16.9586 14.8759 17.5286 15.1361 17.9197 15.5604C18.3142 15.9813 18.5097 16.5083 18.5064 17.1413C18.5097 17.7214 18.3423 18.2367 18.0043 18.6875C17.6695 19.1383 17.2071 19.4929 16.6172 19.7514C16.0272 20.0099 15.3511 20.1392 14.5888 20.1392Z" fill="white"/>
<defs>
<linearGradient id="paint0_linear_82_1614" x1="15" y1="0" x2="15" y2="30" gradientUnits="userSpaceOnUse">
<stop stop-color="#FF9340"/>
<stop offset="1" stop-color="#B45309"/>
</linearGradient>
</defs>
</svg>
