<svg width="30" height="30" viewBox="0 0 30 30" fill="none" xmlns="http://www.w3.org/2000/svg">
<path d="M12.3434 3.57471C13.7806 2.03691 16.2193 2.03691 17.6566 3.57471C18.5706 4.55262 19.8626 5.0878 21.2004 5.04259C23.3041 4.9715 25.0285 6.69592 24.9574 8.7996C24.9122 10.1374 25.4474 11.4294 26.4253 12.3434C27.9631 13.7806 27.9631 16.2193 26.4253 17.6566C25.4474 18.5706 24.9122 19.8626 24.9574 21.2004C25.0285 23.3041 23.3041 25.0285 21.2004 24.9574C19.8626 24.9122 18.5706 25.4474 17.6566 26.4253C16.2194 27.9631 13.7807 27.9631 12.3434 26.4253C11.4294 25.4474 10.1374 24.9122 8.7996 24.9574C6.69592 25.0285 4.9715 23.3041 5.04259 21.2004C5.0878 19.8626 4.55262 18.5706 3.57471 17.6566C2.03691 16.2194 2.03691 13.7806 3.57471 12.3434C4.55262 11.4294 5.0878 10.1374 5.04259 8.7996C4.9715 6.69592 6.69592 4.9715 8.7996 5.04259C10.1374 5.0878 11.4294 4.55262 12.3434 3.57471Z" fill="url(#paint0_linear_82_1590)" stroke="#94A3B8"/>
<path d="M11.8253 20V18.4489L15.4496 15.093C15.7578 14.7947 16.0163 14.5263 16.2251 14.2876C16.4373 14.049 16.598 13.8153 16.7074 13.5866C16.8168 13.3546 16.8714 13.1044 16.8714 12.8359C16.8714 12.5376 16.8035 12.2808 16.6676 12.0653C16.5317 11.8466 16.3461 11.6792 16.1108 11.5632C15.8755 11.4439 15.6087 11.3842 15.3104 11.3842C14.9988 11.3842 14.727 11.4472 14.495 11.5732C14.263 11.6991 14.084 11.8797 13.9581 12.1151C13.8321 12.3504 13.7692 12.6304 13.7692 12.9553H11.7259C11.7259 12.2891 11.8767 11.7107 12.1783 11.2202C12.4799 10.7296 12.9025 10.3501 13.446 10.0817C13.9896 9.81321 14.616 9.67898 15.3253 9.67898C16.0545 9.67898 16.6892 9.80824 17.2294 10.0668C17.773 10.322 18.1955 10.6766 18.4972 11.1307C18.7988 11.5848 18.9496 12.1051 18.9496 12.6918C18.9496 13.0762 18.8733 13.4557 18.7209 13.8303C18.5717 14.2048 18.3049 14.6207 17.9205 15.0781C17.536 15.5322 16.9941 16.0774 16.2947 16.7138L14.8082 18.1705V18.2401H19.0838V20H11.8253Z" fill="white"/>
<defs>
<linearGradient id="paint0_linear_82_1590" x1="15" y1="0" x2="15" y2="30" gradientUnits="userSpaceOnUse">
<stop stop-color="#DBE0E8"/>
<stop offset="1" stop-color="#94A3B8"/>
</linearGradient>
</defs>
</svg>
