<svg width="1440" height="790" viewBox="0 0 1440 790" fill="none" xmlns="http://www.w3.org/2000/svg">
<mask id="mask0_18_749" style="mask-type:alpha" maskUnits="userSpaceOnUse" x="0" y="0" width="1440" height="790">
<rect width="1440" height="790" fill="url(#paint0_radial_18_749)"/>
</mask>
<g mask="url(#mask0_18_749)">
<rect width="1469" height="1077" transform="translate(-15 -144)" fill="#E2E2E2"/>
<rect width="48" height="48" transform="translate(-15 -46)" fill="white"/>
<rect width="48" height="48" transform="translate(34 -46)" fill="#F8F8F8"/>
<rect width="48" height="48" transform="translate(83 -46)" fill="white"/>
<rect width="48" height="48" transform="translate(132 -46)" fill="white"/>
<rect width="48" height="48" transform="translate(181 -46)" fill="white"/>
<rect width="48" height="48" transform="translate(230 -46)" fill="white"/>
<rect width="48" height="48" transform="translate(279 -46)" fill="white"/>
<rect width="48" height="48" transform="translate(328 -46)" fill="white"/>
<rect width="48" height="48" transform="translate(377 -46)" fill="#F8F8F8"/>
<rect width="48" height="48" transform="translate(426 -46)" fill="white"/>
<rect width="48" height="48" transform="translate(475 -46)" fill="white"/>
<rect width="48" height="48" transform="translate(524 -46)" fill="white"/>
<rect width="48" height="48" transform="translate(573 -46)" fill="white"/>
<rect width="48" height="48" transform="translate(622 -46)" fill="#F8F8F8"/>
<rect width="48" height="48" transform="translate(671 -46)" fill="white"/>
<rect width="48" height="48" transform="translate(720 -46)" fill="white"/>
<rect width="48" height="48" transform="translate(769 -46)" fill="white"/>
<rect width="48" height="48" transform="translate(818 -46)" fill="white"/>
<rect width="48" height="48" transform="translate(867 -46)" fill="#F8F8F8"/>
<rect width="48" height="48" transform="translate(916 -46)" fill="white"/>
<rect width="48" height="48" transform="translate(965 -46)" fill="white"/>
<rect width="48" height="48" transform="translate(1014 -46)" fill="#F8F8F8"/>
<rect width="48" height="48" transform="translate(1063 -46)" fill="white"/>
<rect width="48" height="48" transform="translate(1112 -46)" fill="white"/>
<rect width="48" height="48" transform="translate(1161 -46)" fill="white"/>
<rect width="48" height="48" transform="translate(1210 -46)" fill="white"/>
<rect width="48" height="48" transform="translate(1259 -46)" fill="white"/>
<rect width="48" height="48" transform="translate(1308 -46)" fill="white"/>
<rect width="48" height="48" transform="translate(1357 -46)" fill="white"/>
<rect width="48" height="48" transform="translate(1406 -46)" fill="white"/>
<rect width="48" height="48" transform="translate(-15 3)" fill="white"/>
<rect width="48" height="48" transform="translate(34 3)" fill="white"/>
<rect width="48" height="48" transform="translate(83 3)" fill="white"/>
<rect width="48" height="48" transform="translate(132 3)" fill="white"/>
<rect width="48" height="48" transform="translate(181 3)" fill="white"/>
<rect width="48" height="48" transform="translate(230 3)" fill="white"/>
<rect width="48" height="48" transform="translate(279 3)" fill="white"/>
<rect width="48" height="48" transform="translate(328 3)" fill="#F8F8F8"/>
<rect width="48" height="48" transform="translate(377 3)" fill="white"/>
<rect width="48" height="48" transform="translate(426 3)" fill="white"/>
<rect width="48" height="48" transform="translate(475 3)" fill="white"/>
<rect width="48" height="48" transform="translate(524 3)" fill="white"/>
<rect width="48" height="48" transform="translate(573 3)" fill="white"/>
<rect width="48" height="48" transform="translate(622 3)" fill="white"/>
<rect width="48" height="48" transform="translate(671 3)" fill="#F8F8F8"/>
<rect width="48" height="48" transform="translate(720 3)" fill="white"/>
<rect width="48" height="48" transform="translate(769 3)" fill="white"/>
<rect width="48" height="48" transform="translate(818 3)" fill="white"/>
<rect width="48" height="48" transform="translate(867 3)" fill="white"/>
<rect width="48" height="48" transform="translate(916 3)" fill="white"/>
<rect width="48" height="48" transform="translate(965 3)" fill="white"/>
<rect width="48" height="48" transform="translate(1014 3)" fill="white"/>
<rect width="48" height="48" transform="translate(1063 3)" fill="white"/>
<rect width="48" height="48" transform="translate(1112 3)" fill="white"/>
<rect width="48" height="48" transform="translate(1161 3)" fill="white"/>
<rect width="48" height="48" transform="translate(1210 3)" fill="white"/>
<rect width="48" height="48" transform="translate(1259 3)" fill="white"/>
<rect width="48" height="48" transform="translate(1308 3)" fill="#F8F8F8"/>
<rect width="48" height="48" transform="translate(1357 3)" fill="white"/>
<rect width="48" height="48" transform="translate(1406 3)" fill="white"/>
<rect width="48" height="48" transform="translate(-15 52)" fill="white"/>
<rect width="48" height="48" transform="translate(34 52)" fill="#F8F8F8"/>
<rect width="48" height="48" transform="translate(83 52)" fill="white"/>
<rect width="48" height="48" transform="translate(132 52)" fill="#F8F8F8"/>
<rect width="48" height="48" transform="translate(181 52)" fill="white"/>
<rect width="48" height="48" transform="translate(230 52)" fill="white"/>
<rect width="48" height="48" transform="translate(279 52)" fill="white"/>
<rect width="48" height="48" transform="translate(328 52)" fill="white"/>
<rect width="48" height="48" transform="translate(377 52)" fill="white"/>
<rect width="48" height="48" transform="translate(426 52)" fill="white"/>
<rect width="48" height="48" transform="translate(475 52)" fill="#F8F8F8"/>
<rect width="48" height="48" transform="translate(524 52)" fill="white"/>
<rect width="48" height="48" transform="translate(573 52)" fill="white"/>
<rect width="48" height="48" transform="translate(622 52)" fill="white"/>
<rect width="48" height="48" transform="translate(671 52)" fill="white"/>
<rect width="48" height="48" transform="translate(720 52)" fill="white"/>
<rect width="48" height="48" transform="translate(769 52)" fill="white"/>
<rect width="48" height="48" transform="translate(818 52)" fill="white"/>
<rect width="48" height="48" transform="translate(867 52)" fill="white"/>
<rect width="48" height="48" transform="translate(916 52)" fill="#F8F8F8"/>
<rect width="48" height="48" transform="translate(965 52)" fill="white"/>
<rect width="48" height="48" transform="translate(1014 52)" fill="white"/>
<rect width="48" height="48" transform="translate(1063 52)" fill="white"/>
<rect width="48" height="48" transform="translate(1112 52)" fill="white"/>
<rect width="48" height="48" transform="translate(1161 52)" fill="#F8F8F8"/>
<rect width="48" height="48" transform="translate(1210 52)" fill="white"/>
<rect width="48" height="48" transform="translate(1259 52)" fill="white"/>
<rect width="48" height="48" transform="translate(1308 52)" fill="white"/>
<rect width="48" height="48" transform="translate(1357 52)" fill="white"/>
<rect width="48" height="48" transform="translate(1406 52)" fill="white"/>
<rect width="48" height="48" transform="translate(-15 101)" fill="#F8F8F8"/>
<rect width="48" height="48" transform="translate(34 101)" fill="white"/>
<rect width="48" height="48" transform="translate(83 101)" fill="white"/>
<rect width="48" height="48" transform="translate(132 101)" fill="white"/>
<rect width="48" height="48" transform="translate(181 101)" fill="white"/>
<rect width="48" height="48" transform="translate(230 101)" fill="white"/>
<rect width="48" height="48" transform="translate(279 101)" fill="#F8F8F8"/>
<rect width="48" height="48" transform="translate(328 101)" fill="white"/>
<rect width="48" height="48" transform="translate(377 101)" fill="white"/>
<rect width="48" height="48" transform="translate(426 101)" fill="white"/>
<rect width="48" height="48" transform="translate(475 101)" fill="white"/>
<rect width="48" height="48" transform="translate(524 101)" fill="white"/>
<rect width="48" height="48" transform="translate(573 101)" fill="white"/>
<rect width="48" height="48" transform="translate(622 101)" fill="white"/>
<rect width="48" height="48" transform="translate(671 101)" fill="white"/>
<rect width="48" height="48" transform="translate(720 101)" fill="white"/>
<rect width="48" height="48" transform="translate(769 101)" fill="white"/>
<rect width="48" height="48" transform="translate(818 101)" fill="white"/>
<rect width="48" height="48" transform="translate(867 101)" fill="white"/>
<rect width="48" height="48" transform="translate(916 101)" fill="white"/>
<rect width="48" height="48" transform="translate(965 101)" fill="white"/>
<rect width="48" height="48" transform="translate(1014 101)" fill="white"/>
<rect width="48" height="48" transform="translate(1063 101)" fill="white"/>
<rect width="48" height="48" transform="translate(1112 101)" fill="white"/>
<rect width="48" height="48" transform="translate(1161 101)" fill="white"/>
<rect width="48" height="48" transform="translate(1210 101)" fill="white"/>
<rect width="48" height="48" transform="translate(1259 101)" fill="white"/>
<rect width="48" height="48" transform="translate(1308 101)" fill="white"/>
<rect width="48" height="48" transform="translate(1357 101)" fill="#F8F8F8"/>
<rect width="48" height="48" transform="translate(1406 101)" fill="white"/>
<rect width="48" height="48" transform="translate(-15 150)" fill="white"/>
<rect width="48" height="48" transform="translate(34 150)" fill="white"/>
<rect width="48" height="48" transform="translate(83 150)" fill="white"/>
<rect width="48" height="48" transform="translate(132 150)" fill="white"/>
<rect width="48" height="48" transform="translate(181 150)" fill="white"/>
<rect width="48" height="48" transform="translate(230 150)" fill="white"/>
<rect width="48" height="48" transform="translate(279 150)" fill="white"/>
<rect width="48" height="48" transform="translate(328 150)" fill="white"/>
<rect width="48" height="48" transform="translate(377 150)" fill="white"/>
<rect width="48" height="48" transform="translate(426 150)" fill="white"/>
<rect width="48" height="48" transform="translate(475 150)" fill="white"/>
<rect width="48" height="48" transform="translate(524 150)" fill="#F8F8F8"/>
<rect width="48" height="48" transform="translate(573 150)" fill="white"/>
<rect width="48" height="48" transform="translate(622 150)" fill="white"/>
<rect width="48" height="48" transform="translate(671 150)" fill="white"/>
<rect width="48" height="48" transform="translate(720 150)" fill="#F8F8F8"/>
<rect width="48" height="48" transform="translate(769 150)" fill="white"/>
<rect width="48" height="48" transform="translate(818 150)" fill="white"/>
<rect width="48" height="48" transform="translate(867 150)" fill="white"/>
<rect width="48" height="48" transform="translate(916 150)" fill="white"/>
<rect width="48" height="48" transform="translate(965 150)" fill="white"/>
<rect width="48" height="48" transform="translate(1014 150)" fill="white"/>
<rect width="48" height="48" transform="translate(1063 150)" fill="#F8F8F8"/>
<rect width="48" height="48" transform="translate(1112 150)" fill="white"/>
<rect width="48" height="48" transform="translate(1161 150)" fill="white"/>
<rect width="48" height="48" transform="translate(1210 150)" fill="white"/>
<rect width="48" height="48" transform="translate(1259 150)" fill="white"/>
<rect width="48" height="48" transform="translate(1308 150)" fill="#F8F8F8"/>
<rect width="48" height="48" transform="translate(1357 150)" fill="white"/>
<rect width="48" height="48" transform="translate(1406 150)" fill="white"/>
<rect width="48" height="48" transform="translate(-15 199)" fill="white"/>
<rect width="48" height="48" transform="translate(34 199)" fill="white"/>
<rect width="48" height="48" transform="translate(83 199)" fill="white"/>
<rect width="48" height="48" transform="translate(132 199)" fill="#F8F8F8"/>
<rect width="48" height="48" transform="translate(181 199)" fill="white"/>
<rect width="48" height="48" transform="translate(230 199)" fill="white"/>
<rect width="48" height="48" transform="translate(279 199)" fill="white"/>
<rect width="48" height="48" transform="translate(328 199)" fill="white"/>
<rect width="48" height="48" transform="translate(377 199)" fill="white"/>
<rect width="48" height="48" transform="translate(426 199)" fill="white"/>
<rect width="48" height="48" transform="translate(475 199)" fill="white"/>
<rect width="48" height="48" transform="translate(524 199)" fill="white"/>
<rect width="48" height="48" transform="translate(573 199)" fill="white"/>
<rect width="48" height="48" transform="translate(622 199)" fill="white"/>
<rect width="48" height="48" transform="translate(671 199)" fill="white"/>
<rect width="48" height="48" transform="translate(720 199)" fill="white"/>
<rect width="48" height="48" transform="translate(769 199)" fill="#F8F8F8"/>
<rect width="48" height="48" transform="translate(818 199)" fill="white"/>
<rect width="48" height="48" transform="translate(867 199)" fill="white"/>
<rect width="48" height="48" transform="translate(916 199)" fill="#F8F8F8"/>
<rect width="48" height="48" transform="translate(965 199)" fill="white"/>
<rect width="48" height="48" transform="translate(1014 199)" fill="white"/>
<rect width="48" height="48" transform="translate(1063 199)" fill="white"/>
<rect width="48" height="48" transform="translate(1112 199)" fill="white"/>
<rect width="48" height="48" transform="translate(1161 199)" fill="white"/>
<rect width="48" height="48" transform="translate(1210 199)" fill="white"/>
<rect width="48" height="48" transform="translate(1259 199)" fill="#F8F8F8"/>
<rect width="48" height="48" transform="translate(1308 199)" fill="white"/>
<rect width="48" height="48" transform="translate(1357 199)" fill="white"/>
<rect width="48" height="48" transform="translate(1406 199)" fill="white"/>
<rect width="48" height="48" transform="translate(-15 248)" fill="white"/>
<rect width="48" height="48" transform="translate(34 248)" fill="white"/>
<rect width="48" height="48" transform="translate(83 248)" fill="white"/>
<rect width="48" height="48" transform="translate(132 248)" fill="white"/>
<rect width="48" height="48" transform="translate(181 248)" fill="white"/>
<rect width="48" height="48" transform="translate(230 248)" fill="white"/>
<rect width="48" height="48" transform="translate(279 248)" fill="#F8F8F8"/>
<rect width="48" height="48" transform="translate(328 248)" fill="white"/>
<rect width="48" height="48" transform="translate(377 248)" fill="white"/>
<rect width="48" height="48" transform="translate(426 248)" fill="white"/>
<rect width="48" height="48" transform="translate(475 248)" fill="white"/>
<rect width="48" height="48" transform="translate(524 248)" fill="white"/>
<rect width="48" height="48" transform="translate(573 248)" fill="white"/>
<rect width="48" height="48" transform="translate(622 248)" fill="white"/>
<rect width="48" height="48" transform="translate(671 248)" fill="white"/>
<rect width="48" height="48" transform="translate(720 248)" fill="white"/>
<rect width="48" height="48" transform="translate(769 248)" fill="white"/>
<rect width="48" height="48" transform="translate(818 248)" fill="white"/>
<rect width="48" height="48" transform="translate(867 248)" fill="white"/>
<rect width="48" height="48" transform="translate(916 248)" fill="white"/>
<rect width="48" height="48" transform="translate(965 248)" fill="white"/>
<rect width="48" height="48" transform="translate(1014 248)" fill="white"/>
<rect width="48" height="48" transform="translate(1063 248)" fill="white"/>
<rect width="48" height="48" transform="translate(1112 248)" fill="#F8F8F8"/>
<rect width="48" height="48" transform="translate(1161 248)" fill="white"/>
<rect width="48" height="48" transform="translate(1210 248)" fill="white"/>
<rect width="48" height="48" transform="translate(1259 248)" fill="white"/>
<rect width="48" height="48" transform="translate(1308 248)" fill="white"/>
<rect width="48" height="48" transform="translate(1357 248)" fill="white"/>
<rect width="48" height="48" transform="translate(1406 248)" fill="white"/>
<rect width="48" height="48" transform="translate(-15 297)" fill="white"/>
<rect width="48" height="48" transform="translate(34 297)" fill="white"/>
<rect width="48" height="48" transform="translate(83 297)" fill="#F8F8F8"/>
<rect width="48" height="48" transform="translate(132 297)" fill="white"/>
<rect width="48" height="48" transform="translate(181 297)" fill="white"/>
<rect width="48" height="48" transform="translate(230 297)" fill="white"/>
<rect width="48" height="48" transform="translate(279 297)" fill="white"/>
<rect width="48" height="48" transform="translate(328 297)" fill="white"/>
<rect width="48" height="48" transform="translate(377 297)" fill="white"/>
<rect width="48" height="48" transform="translate(426 297)" fill="white"/>
<rect width="48" height="48" transform="translate(475 297)" fill="white"/>
<rect width="48" height="48" transform="translate(524 297)" fill="white"/>
<rect width="48" height="48" transform="translate(573 297)" fill="white"/>
<rect width="48" height="48" transform="translate(622 297)" fill="white"/>
<rect width="48" height="48" transform="translate(671 297)" fill="#F8F8F8"/>
<rect width="48" height="48" transform="translate(720 297)" fill="white"/>
<rect width="48" height="48" transform="translate(769 297)" fill="white"/>
<rect width="48" height="48" transform="translate(818 297)" fill="white"/>
<rect width="48" height="48" transform="translate(867 297)" fill="white"/>
<rect width="48" height="48" transform="translate(916 297)" fill="white"/>
<rect width="48" height="48" transform="translate(965 297)" fill="white"/>
<rect width="48" height="48" transform="translate(1014 297)" fill="white"/>
<rect width="48" height="48" transform="translate(1063 297)" fill="white"/>
<rect width="48" height="48" transform="translate(1112 297)" fill="white"/>
<rect width="48" height="48" transform="translate(1161 297)" fill="#F8F8F8"/>
<rect width="48" height="48" transform="translate(1210 297)" fill="white"/>
<rect width="48" height="48" transform="translate(1259 297)" fill="white"/>
<rect width="48" height="48" transform="translate(1308 297)" fill="white"/>
<rect width="48" height="48" transform="translate(1357 297)" fill="white"/>
<rect width="48" height="48" transform="translate(1406 297)" fill="white"/>
<rect width="48" height="48" transform="translate(-15 346)" fill="white"/>
<rect width="48" height="48" transform="translate(34 346)" fill="white"/>
<rect width="48" height="48" transform="translate(83 346)" fill="white"/>
<rect width="48" height="48" transform="translate(132 346)" fill="white"/>
<rect width="48" height="48" transform="translate(181 346)" fill="white"/>
<rect width="48" height="48" transform="translate(230 346)" fill="white"/>
<rect width="48" height="48" transform="translate(279 346)" fill="white"/>
<rect width="48" height="48" transform="translate(328 346)" fill="white"/>
<rect width="48" height="48" transform="translate(377 346)" fill="#F8F8F8"/>
<rect width="48" height="48" transform="translate(426 346)" fill="white"/>
<rect width="48" height="48" transform="translate(475 346)" fill="white"/>
<rect width="48" height="48" transform="translate(524 346)" fill="white"/>
<rect width="48" height="48" transform="translate(573 346)" fill="#F8F8F8"/>
<rect width="48" height="48" transform="translate(622 346)" fill="white"/>
<rect width="48" height="48" transform="translate(671 346)" fill="white"/>
<rect width="48" height="48" transform="translate(720 346)" fill="white"/>
<rect width="48" height="48" transform="translate(769 346)" fill="white"/>
<rect width="48" height="48" transform="translate(818 346)" fill="white"/>
<rect width="48" height="48" transform="translate(867 346)" fill="#F8F8F8"/>
<rect width="48" height="48" transform="translate(916 346)" fill="white"/>
<rect width="48" height="48" transform="translate(965 346)" fill="white"/>
<rect width="48" height="48" transform="translate(1014 346)" fill="white"/>
<rect width="48" height="48" transform="translate(1063 346)" fill="white"/>
<rect width="48" height="48" transform="translate(1112 346)" fill="white"/>
<rect width="48" height="48" transform="translate(1161 346)" fill="white"/>
<rect width="48" height="48" transform="translate(1210 346)" fill="white"/>
<rect width="48" height="48" transform="translate(1259 346)" fill="white"/>
<rect width="48" height="48" transform="translate(1308 346)" fill="#F8F8F8"/>
<rect width="48" height="48" transform="translate(1357 346)" fill="white"/>
<rect width="48" height="48" transform="translate(1406 346)" fill="white"/>
<rect width="48" height="48" transform="translate(-15 395)" fill="white"/>
<rect width="48" height="48" transform="translate(34 395)" fill="white"/>
<rect width="48" height="48" transform="translate(83 395)" fill="white"/>
<rect width="48" height="48" transform="translate(132 395)" fill="white"/>
<rect width="48" height="48" transform="translate(181 395)" fill="white"/>
<rect width="48" height="48" transform="translate(230 395)" fill="#F8F8F8"/>
<rect width="48" height="48" transform="translate(279 395)" fill="white"/>
<rect width="48" height="48" transform="translate(328 395)" fill="white"/>
<rect width="48" height="48" transform="translate(377 395)" fill="white"/>
<rect width="48" height="48" transform="translate(426 395)" fill="white"/>
<rect width="48" height="48" transform="translate(475 395)" fill="white"/>
<rect width="48" height="48" transform="translate(524 395)" fill="white"/>
<rect width="48" height="48" transform="translate(573 395)" fill="white"/>
<rect width="48" height="48" transform="translate(622 395)" fill="#F8F8F8"/>
<rect width="48" height="48" transform="translate(671 395)" fill="white"/>
<rect width="48" height="48" transform="translate(720 395)" fill="white"/>
<rect width="48" height="48" transform="translate(769 395)" fill="white"/>
<rect width="48" height="48" transform="translate(818 395)" fill="#F8F8F8"/>
<rect width="48" height="48" transform="translate(867 395)" fill="white"/>
<rect width="48" height="48" transform="translate(916 395)" fill="white"/>
<rect width="48" height="48" transform="translate(965 395)" fill="white"/>
<rect width="48" height="48" transform="translate(1014 395)" fill="#F8F8F8"/>
<rect width="48" height="48" transform="translate(1063 395)" fill="white"/>
<rect width="48" height="48" transform="translate(1112 395)" fill="white"/>
<rect width="48" height="48" transform="translate(1161 395)" fill="white"/>
<rect width="48" height="48" transform="translate(1210 395)" fill="white"/>
<rect width="48" height="48" transform="translate(1259 395)" fill="#F8F8F8"/>
<rect width="48" height="48" transform="translate(1308 395)" fill="white"/>
<rect width="48" height="48" transform="translate(1357 395)" fill="white"/>
<rect width="48" height="48" transform="translate(1406 395)" fill="white"/>
<rect width="48" height="48" transform="translate(-15 444)" fill="white"/>
<rect width="48" height="48" transform="translate(34 444)" fill="white"/>
<rect width="48" height="48" transform="translate(83 444)" fill="white"/>
<rect width="48" height="48" transform="translate(132 444)" fill="#F8F8F8"/>
<rect width="48" height="48" transform="translate(181 444)" fill="white"/>
<rect width="48" height="48" transform="translate(230 444)" fill="white"/>
<rect width="48" height="48" transform="translate(279 444)" fill="white"/>
<rect width="48" height="48" transform="translate(328 444)" fill="white"/>
<rect width="48" height="48" transform="translate(377 444)" fill="white"/>
<rect width="48" height="48" transform="translate(426 444)" fill="white"/>
<rect width="48" height="48" transform="translate(475 444)" fill="#F8F8F8"/>
<rect width="48" height="48" transform="translate(524 444)" fill="white"/>
<rect width="48" height="48" transform="translate(573 444)" fill="white"/>
<rect width="48" height="48" transform="translate(622 444)" fill="white"/>
<rect width="48" height="48" transform="translate(671 444)" fill="white"/>
<rect width="48" height="48" transform="translate(720 444)" fill="white"/>
<rect width="48" height="48" transform="translate(769 444)" fill="white"/>
<rect width="48" height="48" transform="translate(818 444)" fill="white"/>
<rect width="48" height="48" transform="translate(867 444)" fill="white"/>
<rect width="48" height="48" transform="translate(916 444)" fill="white"/>
<rect width="48" height="48" transform="translate(965 444)" fill="white"/>
<rect width="48" height="48" transform="translate(1014 444)" fill="white"/>
<rect width="48" height="48" transform="translate(1063 444)" fill="white"/>
<rect width="48" height="48" transform="translate(1112 444)" fill="white"/>
<rect width="48" height="48" transform="translate(1161 444)" fill="white"/>
<rect width="48" height="48" transform="translate(1210 444)" fill="white"/>
<rect width="48" height="48" transform="translate(1259 444)" fill="white"/>
<rect width="48" height="48" transform="translate(1308 444)" fill="white"/>
<rect width="48" height="48" transform="translate(1357 444)" fill="white"/>
<rect width="48" height="48" transform="translate(1406 444)" fill="white"/>
<rect width="48" height="48" transform="translate(-15 493)" fill="white"/>
<rect width="48" height="48" transform="translate(34 493)" fill="white"/>
<rect width="48" height="48" transform="translate(83 493)" fill="#F8F8F8"/>
<rect width="48" height="48" transform="translate(132 493)" fill="white"/>
<rect width="48" height="48" transform="translate(181 493)" fill="white"/>
<rect width="48" height="48" transform="translate(230 493)" fill="white"/>
<rect width="48" height="48" transform="translate(279 493)" fill="white"/>
<rect width="48" height="48" transform="translate(328 493)" fill="white"/>
<rect width="48" height="48" transform="translate(377 493)" fill="white"/>
<rect width="48" height="48" transform="translate(426 493)" fill="white"/>
<rect width="48" height="48" transform="translate(475 493)" fill="white"/>
<rect width="48" height="48" transform="translate(524 493)" fill="white"/>
<rect width="48" height="48" transform="translate(573 493)" fill="white"/>
<rect width="48" height="48" transform="translate(622 493)" fill="white"/>
<rect width="48" height="48" transform="translate(671 493)" fill="white"/>
<rect width="48" height="48" transform="translate(720 493)" fill="#F8F8F8"/>
<rect width="48" height="48" transform="translate(769 493)" fill="white"/>
<rect width="48" height="48" transform="translate(818 493)" fill="white"/>
<rect width="48" height="48" transform="translate(867 493)" fill="white"/>
<rect width="48" height="48" transform="translate(916 493)" fill="white"/>
<rect width="48" height="48" transform="translate(965 493)" fill="white"/>
<rect width="48" height="48" transform="translate(1014 493)" fill="#F8F8F8"/>
<rect width="48" height="48" transform="translate(1063 493)" fill="white"/>
<rect width="48" height="48" transform="translate(1112 493)" fill="#F8F8F8"/>
<rect width="48" height="48" transform="translate(1161 493)" fill="white"/>
<rect width="48" height="48" transform="translate(1210 493)" fill="white"/>
<rect width="48" height="48" transform="translate(1259 493)" fill="#F8F8F8"/>
<rect width="48" height="48" transform="translate(1308 493)" fill="white"/>
<rect width="48" height="48" transform="translate(1357 493)" fill="white"/>
<rect width="48" height="48" transform="translate(1406 493)" fill="white"/>
<rect width="48" height="48" transform="translate(-15 542)" fill="white"/>
<rect width="48" height="48" transform="translate(34 542)" fill="white"/>
<rect width="48" height="48" transform="translate(83 542)" fill="white"/>
<rect width="48" height="48" transform="translate(132 542)" fill="white"/>
<rect width="48" height="48" transform="translate(181 542)" fill="white"/>
<rect width="48" height="48" transform="translate(230 542)" fill="white"/>
<rect width="48" height="48" transform="translate(279 542)" fill="#F8F8F8"/>
<rect width="48" height="48" transform="translate(328 542)" fill="white"/>
<rect width="48" height="48" transform="translate(377 542)" fill="white"/>
<rect width="48" height="48" transform="translate(426 542)" fill="white"/>
<rect width="48" height="48" transform="translate(475 542)" fill="white"/>
<rect width="48" height="48" transform="translate(524 542)" fill="#F8F8F8"/>
<rect width="48" height="48" transform="translate(573 542)" fill="white"/>
<rect width="48" height="48" transform="translate(622 542)" fill="white"/>
<rect width="48" height="48" transform="translate(671 542)" fill="white"/>
<rect width="48" height="48" transform="translate(720 542)" fill="white"/>
<rect width="48" height="48" transform="translate(769 542)" fill="white"/>
<rect width="48" height="48" transform="translate(818 542)" fill="white"/>
<rect width="48" height="48" transform="translate(867 542)" fill="#F8F8F8"/>
<rect width="48" height="48" transform="translate(916 542)" fill="white"/>
<rect width="48" height="48" transform="translate(965 542)" fill="white"/>
<rect width="48" height="48" transform="translate(1014 542)" fill="white"/>
<rect width="48" height="48" transform="translate(1063 542)" fill="white"/>
<rect width="48" height="48" transform="translate(1112 542)" fill="white"/>
<rect width="48" height="48" transform="translate(1161 542)" fill="white"/>
<rect width="48" height="48" transform="translate(1210 542)" fill="white"/>
<rect width="48" height="48" transform="translate(1259 542)" fill="white"/>
<rect width="48" height="48" transform="translate(1308 542)" fill="white"/>
<rect width="48" height="48" transform="translate(1357 542)" fill="white"/>
<rect width="48" height="48" transform="translate(1406 542)" fill="white"/>
<rect width="48" height="48" transform="translate(-15 591)" fill="#F8F8F8"/>
<rect width="48" height="48" transform="translate(34 591)" fill="white"/>
<rect width="48" height="48" transform="translate(83 591)" fill="white"/>
<rect width="48" height="48" transform="translate(132 591)" fill="white"/>
<rect width="48" height="48" transform="translate(181 591)" fill="white"/>
<rect width="48" height="48" transform="translate(230 591)" fill="white"/>
<rect width="48" height="48" transform="translate(279 591)" fill="white"/>
<rect width="48" height="48" transform="translate(328 591)" fill="white"/>
<rect width="48" height="48" transform="translate(377 591)" fill="white"/>
<rect width="48" height="48" transform="translate(426 591)" fill="white"/>
<rect width="48" height="48" transform="translate(475 591)" fill="#F8F8F8"/>
<rect width="48" height="48" transform="translate(524 591)" fill="white"/>
<rect width="48" height="48" transform="translate(573 591)" fill="white"/>
<rect width="48" height="48" transform="translate(622 591)" fill="white"/>
<rect width="48" height="48" transform="translate(671 591)" fill="#F8F8F8"/>
<rect width="48" height="48" transform="translate(720 591)" fill="white"/>
<rect width="48" height="48" transform="translate(769 591)" fill="white"/>
<rect width="48" height="48" transform="translate(818 591)" fill="#F8F8F8"/>
<rect width="48" height="48" transform="translate(867 591)" fill="white"/>
<rect width="48" height="48" transform="translate(916 591)" fill="white"/>
<rect width="48" height="48" transform="translate(965 591)" fill="white"/>
<rect width="48" height="48" transform="translate(1014 591)" fill="white"/>
<rect width="48" height="48" transform="translate(1063 591)" fill="white"/>
<rect width="48" height="48" transform="translate(1112 591)" fill="white"/>
<rect width="48" height="48" transform="translate(1161 591)" fill="#F8F8F8"/>
<rect width="48" height="48" transform="translate(1210 591)" fill="white"/>
<rect width="48" height="48" transform="translate(1259 591)" fill="white"/>
<rect width="48" height="48" transform="translate(1308 591)" fill="white"/>
<rect width="48" height="48" transform="translate(1357 591)" fill="#F8F8F8"/>
<rect width="48" height="48" transform="translate(1406 591)" fill="white"/>
<rect width="48" height="48" transform="translate(-15 640)" fill="white"/>
<rect width="48" height="48" transform="translate(34 640)" fill="white"/>
<rect width="48" height="48" transform="translate(83 640)" fill="white"/>
<rect width="48" height="48" transform="translate(132 640)" fill="white"/>
<rect width="48" height="48" transform="translate(181 640)" fill="white"/>
<rect width="48" height="48" transform="translate(230 640)" fill="white"/>
<rect width="48" height="48" transform="translate(279 640)" fill="white"/>
<rect width="48" height="48" transform="translate(328 640)" fill="white"/>
<rect width="48" height="48" transform="translate(377 640)" fill="white"/>
<rect width="48" height="48" transform="translate(426 640)" fill="white"/>
<rect width="48" height="48" transform="translate(475 640)" fill="white"/>
<rect width="48" height="48" transform="translate(524 640)" fill="white"/>
<rect width="48" height="48" transform="translate(573 640)" fill="white"/>
<rect width="48" height="48" transform="translate(622 640)" fill="white"/>
<rect width="48" height="48" transform="translate(671 640)" fill="white"/>
<rect width="48" height="48" transform="translate(720 640)" fill="white"/>
<rect width="48" height="48" transform="translate(769 640)" fill="white"/>
<rect width="48" height="48" transform="translate(818 640)" fill="white"/>
<rect width="48" height="48" transform="translate(867 640)" fill="white"/>
<rect width="48" height="48" transform="translate(916 640)" fill="white"/>
<rect width="48" height="48" transform="translate(965 640)" fill="white"/>
<rect width="48" height="48" transform="translate(1014 640)" fill="#F8F8F8"/>
<rect width="48" height="48" transform="translate(1063 640)" fill="white"/>
<rect width="48" height="48" transform="translate(1112 640)" fill="white"/>
<rect width="48" height="48" transform="translate(1161 640)" fill="white"/>
<rect width="48" height="48" transform="translate(1210 640)" fill="white"/>
<rect width="48" height="48" transform="translate(1259 640)" fill="white"/>
<rect width="48" height="48" transform="translate(1308 640)" fill="#F8F8F8"/>
<rect width="48" height="48" transform="translate(1357 640)" fill="white"/>
<rect width="48" height="48" transform="translate(1406 640)" fill="white"/>
<rect width="48" height="48" transform="translate(-15 689)" fill="white"/>
<rect width="48" height="48" transform="translate(34 689)" fill="white"/>
<rect width="48" height="48" transform="translate(83 689)" fill="white"/>
<rect width="48" height="48" transform="translate(132 689)" fill="#F8F8F8"/>
<rect width="48" height="48" transform="translate(181 689)" fill="white"/>
<rect width="48" height="48" transform="translate(230 689)" fill="white"/>
<rect width="48" height="48" transform="translate(279 689)" fill="white"/>
<rect width="48" height="48" transform="translate(328 689)" fill="white"/>
<rect width="48" height="48" transform="translate(377 689)" fill="#F8F8F8"/>
<rect width="48" height="48" transform="translate(426 689)" fill="white"/>
<rect width="48" height="48" transform="translate(475 689)" fill="white"/>
<rect width="48" height="48" transform="translate(524 689)" fill="white"/>
<rect width="48" height="48" transform="translate(573 689)" fill="#F8F8F8"/>
<rect width="48" height="48" transform="translate(622 689)" fill="white"/>
<rect width="48" height="48" transform="translate(671 689)" fill="white"/>
<rect width="48" height="48" transform="translate(720 689)" fill="white"/>
<rect width="48" height="48" transform="translate(769 689)" fill="#F8F8F8"/>
<rect width="48" height="48" transform="translate(818 689)" fill="white"/>
<rect width="48" height="48" transform="translate(867 689)" fill="white"/>
<rect width="48" height="48" transform="translate(916 689)" fill="white"/>
<rect width="48" height="48" transform="translate(965 689)" fill="white"/>
<rect width="48" height="48" transform="translate(1014 689)" fill="white"/>
<rect width="48" height="48" transform="translate(1063 689)" fill="white"/>
<rect width="48" height="48" transform="translate(1112 689)" fill="white"/>
<rect width="48" height="48" transform="translate(1161 689)" fill="#F8F8F8"/>
<rect width="48" height="48" transform="translate(1210 689)" fill="white"/>
<rect width="48" height="48" transform="translate(1259 689)" fill="white"/>
<rect width="48" height="48" transform="translate(1308 689)" fill="white"/>
<rect width="48" height="48" transform="translate(1357 689)" fill="white"/>
<rect width="48" height="48" transform="translate(1406 689)" fill="white"/>
<rect width="48" height="48" transform="translate(-15 738)" fill="white"/>
<rect width="48" height="48" transform="translate(34 738)" fill="white"/>
<rect width="48" height="48" transform="translate(83 738)" fill="#F8F8F8"/>
<rect width="48" height="48" transform="translate(132 738)" fill="white"/>
<rect width="48" height="48" transform="translate(181 738)" fill="white"/>
<rect width="48" height="48" transform="translate(230 738)" fill="white"/>
<rect width="48" height="48" transform="translate(279 738)" fill="white"/>
<rect width="48" height="48" transform="translate(328 738)" fill="white"/>
<rect width="48" height="48" transform="translate(377 738)" fill="white"/>
<rect width="48" height="48" transform="translate(426 738)" fill="#F8F8F8"/>
<rect width="48" height="48" transform="translate(475 738)" fill="white"/>
<rect width="48" height="48" transform="translate(524 738)" fill="white"/>
<rect width="48" height="48" transform="translate(573 738)" fill="white"/>
<rect width="48" height="48" transform="translate(622 738)" fill="#F8F8F8"/>
<rect width="48" height="48" transform="translate(671 738)" fill="white"/>
<rect width="48" height="48" transform="translate(720 738)" fill="white"/>
<rect width="48" height="48" transform="translate(769 738)" fill="white"/>
<rect width="48" height="48" transform="translate(818 738)" fill="white"/>
<rect width="48" height="48" transform="translate(867 738)" fill="white"/>
<rect width="48" height="48" transform="translate(916 738)" fill="#F8F8F8"/>
<rect width="48" height="48" transform="translate(965 738)" fill="white"/>
<rect width="48" height="48" transform="translate(1014 738)" fill="#F8F8F8"/>
<rect width="48" height="48" transform="translate(1063 738)" fill="white"/>
<rect width="48" height="48" transform="translate(1112 738)" fill="white"/>
<rect width="48" height="48" transform="translate(1161 738)" fill="white"/>
<rect width="48" height="48" transform="translate(1210 738)" fill="white"/>
<rect width="48" height="48" transform="translate(1259 738)" fill="#F8F8F8"/>
<rect width="48" height="48" transform="translate(1308 738)" fill="white"/>
<rect width="48" height="48" transform="translate(1357 738)" fill="white"/>
<rect width="48" height="48" transform="translate(1406 738)" fill="white"/>
<rect width="48" height="48" transform="translate(-15 787)" fill="white"/>
<rect width="48" height="48" transform="translate(34 787)" fill="white"/>
<rect width="48" height="48" transform="translate(83 787)" fill="white"/>
<rect width="48" height="48" transform="translate(132 787)" fill="white"/>
<rect width="48" height="48" transform="translate(181 787)" fill="white"/>
<rect width="48" height="48" transform="translate(230 787)" fill="white"/>
<rect width="48" height="48" transform="translate(279 787)" fill="white"/>
<rect width="48" height="48" transform="translate(328 787)" fill="white"/>
<rect width="48" height="48" transform="translate(377 787)" fill="white"/>
<rect width="48" height="48" transform="translate(426 787)" fill="white"/>
<rect width="48" height="48" transform="translate(475 787)" fill="#F8F8F8"/>
<rect width="48" height="48" transform="translate(524 787)" fill="white"/>
<rect width="48" height="48" transform="translate(573 787)" fill="white"/>
<rect width="48" height="48" transform="translate(622 787)" fill="white"/>
<rect width="48" height="48" transform="translate(671 787)" fill="white"/>
<rect width="48" height="48" transform="translate(720 787)" fill="white"/>
<rect width="48" height="48" transform="translate(769 787)" fill="white"/>
<rect width="48" height="48" transform="translate(818 787)" fill="white"/>
<rect width="48" height="48" transform="translate(867 787)" fill="#F8F8F8"/>
<rect width="48" height="48" transform="translate(916 787)" fill="white"/>
<rect width="48" height="48" transform="translate(965 787)" fill="white"/>
<rect width="48" height="48" transform="translate(1014 787)" fill="white"/>
<rect width="48" height="48" transform="translate(1063 787)" fill="white"/>
<rect width="48" height="48" transform="translate(1112 787)" fill="white"/>
<rect width="48" height="48" transform="translate(1161 787)" fill="white"/>
<rect width="48" height="48" transform="translate(1210 787)" fill="white"/>
<rect width="48" height="48" transform="translate(1259 787)" fill="white"/>
<rect width="48" height="48" transform="translate(1308 787)" fill="#F8F8F8"/>
<rect width="48" height="48" transform="translate(1357 787)" fill="white"/>
<rect width="48" height="48" transform="translate(1406 787)" fill="white"/>
<mask id="mask1_18_749" style="mask-type:alpha" maskUnits="userSpaceOnUse" x="33" y="296" width="148" height="147">
<rect x="33" y="296" width="148" height="147" fill="url(#paint1_linear_18_749)"/>
</mask>
<g mask="url(#mask1_18_749)">
<path d="M33 297H131V346H180V444" stroke="#8F8F8F" stroke-width="1.5"/>
</g>
<mask id="mask2_18_749" style="mask-type:alpha" maskUnits="userSpaceOnUse" x="523" y="247" width="148" height="147">
<rect x="523" y="247" width="148" height="147" fill="url(#paint2_linear_18_749)"/>
</mask>
<g mask="url(#mask2_18_749)">
<path d="M523 248H621V297H670V395" stroke="#8F8F8F" stroke-width="1.5"/>
</g>
<mask id="mask3_18_749" style="mask-type:alpha" maskUnits="userSpaceOnUse" x="1063" y="494" width="148" height="147">
<rect width="148" height="147" transform="matrix(1 0 0 -1 1063 641)" fill="url(#paint3_linear_18_749)"/>
</mask>
<g mask="url(#mask3_18_749)">
<path d="M1063 640H1161V591H1210V493" stroke="#8F8F8F" stroke-width="1.5"/>
</g>
<mask id="mask4_18_749" style="mask-type:alpha" maskUnits="userSpaceOnUse" x="744" y="149" width="245" height="2">
<rect x="744" y="149" width="245" height="1.5" fill="url(#paint4_linear_18_749)"/>
</mask>
<g mask="url(#mask4_18_749)">
<path d="M744 149.75H989" stroke="#8F8F8F" stroke-width="1.5"/>
</g>
<mask id="mask5_18_749" style="mask-type:alpha" maskUnits="userSpaceOnUse" x="304" y="590" width="245" height="2">
<rect width="245" height="1.5" transform="matrix(-1 0 0 1 549 590)" fill="url(#paint5_linear_18_749)"/>
</mask>
<g mask="url(#mask5_18_749)">
<path d="M549 590.75H304" stroke="#8F8F8F" stroke-width="1.5"/>
</g>
<mask id="mask6_18_749" style="mask-type:alpha" maskUnits="userSpaceOnUse" x="750" y="737" width="245" height="2">
<rect width="245" height="1.5" transform="matrix(-1 0 0 1 995 737)" fill="url(#paint6_linear_18_749)"/>
</mask>
<g mask="url(#mask6_18_749)">
<path d="M995 737.75H750" stroke="#8F8F8F" stroke-width="1.5"/>
</g>
<mask id="mask7_18_749" style="mask-type:alpha" maskUnits="userSpaceOnUse" x="598" y="51" width="245" height="2">
<rect width="245" height="1.5" transform="matrix(-1 0 0 1 843 51)" fill="url(#paint7_linear_18_749)"/>
</mask>
<g mask="url(#mask7_18_749)">
<path d="M843 51.75H598" stroke="#8F8F8F" stroke-width="1.5"/>
</g>
<mask id="mask8_18_749" style="mask-type:alpha" maskUnits="userSpaceOnUse" x="1096" y="443" width="245" height="2">
<rect x="1096" y="443" width="245" height="1.5" fill="url(#paint8_linear_18_749)"/>
</mask>
<g mask="url(#mask8_18_749)">
<path d="M1096 443.75H1341" stroke="#8F8F8F" stroke-width="1.5"/>
</g>
<mask id="mask9_18_749" style="mask-type:alpha" maskUnits="userSpaceOnUse" x="866" y="382" width="2" height="246">
<rect width="245" height="1.5" transform="matrix(0 -1 -1 0 867.5 627.5)" fill="url(#paint9_linear_18_749)"/>
</mask>
<g mask="url(#mask9_18_749)">
<path d="M866.75 627.5V382.5" stroke="#8F8F8F" stroke-width="1.5"/>
</g>
<mask id="mask10_18_749" style="mask-type:alpha" maskUnits="userSpaceOnUse" x="376" y="-18" width="2" height="246">
<rect x="377.5" y="-17.5" width="245" height="1.5" transform="rotate(90 377.5 -17.5)" fill="url(#paint10_linear_18_749)"/>
</mask>
<g mask="url(#mask10_18_749)">
<path d="M376.75 -17.5L376.75 227.5" stroke="#8F8F8F" stroke-width="1.5"/>
</g>
</g>
<defs>
<radialGradient id="paint0_radial_18_749" cx="0" cy="0" r="1" gradientUnits="userSpaceOnUse" gradientTransform="translate(720 395) rotate(90) scale(395 720)">
<stop offset="0.816295" stop-color="#D9D9D9"/>
<stop offset="1" stop-color="#D9D9D9" stop-opacity="0"/>
</radialGradient>
<linearGradient id="paint1_linear_18_749" x1="33" y1="296" x2="179.997" y2="443.997" gradientUnits="userSpaceOnUse">
<stop stop-color="#D9D9D9" stop-opacity="0"/>
<stop offset="0.503788" stop-color="#D9D9D9"/>
<stop offset="0.96734" stop-color="#D9D9D9" stop-opacity="0"/>
</linearGradient>
<linearGradient id="paint2_linear_18_749" x1="523" y1="247" x2="669.997" y2="394.997" gradientUnits="userSpaceOnUse">
<stop stop-color="#D9D9D9" stop-opacity="0"/>
<stop offset="0.503788" stop-color="#D9D9D9"/>
<stop offset="0.96734" stop-color="#D9D9D9" stop-opacity="0"/>
</linearGradient>
<linearGradient id="paint3_linear_18_749" x1="0" y1="0" x2="146.997" y2="147.997" gradientUnits="userSpaceOnUse">
<stop stop-color="#D9D9D9" stop-opacity="0"/>
<stop offset="0.503788" stop-color="#D9D9D9"/>
<stop offset="0.96734" stop-color="#D9D9D9" stop-opacity="0"/>
</linearGradient>
<linearGradient id="paint4_linear_18_749" x1="989" y1="149.751" x2="744" y2="149.751" gradientUnits="userSpaceOnUse">
<stop stop-color="#D9D9D9"/>
<stop offset="0.488163" stop-color="#D9D9D9" stop-opacity="0"/>
</linearGradient>
<linearGradient id="paint5_linear_18_749" x1="245" y1="0.751332" x2="-4.11344e-09" y2="0.75133" gradientUnits="userSpaceOnUse">
<stop stop-color="#D9D9D9"/>
<stop offset="0.488163" stop-color="#D9D9D9" stop-opacity="0"/>
</linearGradient>
<linearGradient id="paint6_linear_18_749" x1="245" y1="0.751332" x2="-4.11344e-09" y2="0.75133" gradientUnits="userSpaceOnUse">
<stop stop-color="#D9D9D9"/>
<stop offset="0.488163" stop-color="#D9D9D9" stop-opacity="0"/>
</linearGradient>
<linearGradient id="paint7_linear_18_749" x1="245" y1="0.751332" x2="-4.11344e-09" y2="0.75133" gradientUnits="userSpaceOnUse">
<stop stop-color="#D9D9D9"/>
<stop offset="0.488163" stop-color="#D9D9D9" stop-opacity="0"/>
</linearGradient>
<linearGradient id="paint8_linear_18_749" x1="1341" y1="443.751" x2="1096" y2="443.751" gradientUnits="userSpaceOnUse">
<stop stop-color="#D9D9D9"/>
<stop offset="0.488163" stop-color="#D9D9D9" stop-opacity="0"/>
</linearGradient>
<linearGradient id="paint9_linear_18_749" x1="245" y1="0.751332" x2="-4.11344e-09" y2="0.75133" gradientUnits="userSpaceOnUse">
<stop stop-color="#D9D9D9"/>
<stop offset="0.488163" stop-color="#D9D9D9" stop-opacity="0"/>
</linearGradient>
<linearGradient id="paint10_linear_18_749" x1="622.5" y1="-16.7487" x2="377.5" y2="-16.7487" gradientUnits="userSpaceOnUse">
<stop stop-color="#D9D9D9"/>
<stop offset="0.488163" stop-color="#D9D9D9" stop-opacity="0"/>
</linearGradient>
</defs>
</svg>
