<svg width="30" height="30" viewBox="0 0 30 30" fill="none" xmlns="http://www.w3.org/2000/svg">
<path d="M12.3424 3.57471C13.7797 2.03691 16.2184 2.03691 17.6556 3.57471C18.5696 4.55262 19.8616 5.0878 21.1994 5.04259C23.3031 4.9715 25.0275 6.69592 24.9564 8.7996C24.9112 10.1374 25.4464 11.4294 26.4243 12.3434C27.9621 13.7806 27.9621 16.2193 26.4243 17.6566C25.4464 18.5706 24.9112 19.8626 24.9564 21.2004C25.0275 23.3041 23.3031 25.0285 21.1994 24.9574C19.8616 24.9122 18.5696 25.4474 17.6556 26.4253C16.2184 27.9631 13.7797 27.9631 12.3424 26.4253C11.4284 25.4474 10.1364 24.9122 8.79863 24.9574C6.69494 25.0285 4.97052 23.3041 5.04162 21.2004C5.08683 19.8626 4.55165 18.5706 3.57373 17.6566C2.03593 16.2194 2.03593 13.7806 3.57373 12.3434C4.55165 11.4294 5.08683 10.1374 5.04162 8.7996C4.97052 6.69592 6.69494 4.9715 8.79863 5.04259C10.1364 5.0878 11.4284 4.55262 12.3424 3.57471Z" fill="url(#paint0_linear_82_1602)" stroke="#EAB308"/>
<path d="M16.255 9.81818V20H14.1023V11.8615H14.0426L11.7109 13.3232V11.4141L14.2315 9.81818H16.255Z" fill="white"/>
<defs>
<linearGradient id="paint0_linear_82_1602" x1="14.999" y1="0" x2="14.999" y2="30" gradientUnits="userSpaceOnUse">
<stop stop-color="#FAD35A"/>
<stop offset="1" stop-color="#EAB308"/>
</linearGradient>
</defs>
</svg>
