<svg width="246" height="147" viewBox="0 0 246 147" fill="none" xmlns="http://www.w3.org/2000/svg">
<g clip-path="url(#clip0_27_1477)">
<path d="M95.6227 131.709C94.3044 132.173 92.889 132.289 91.5128 132.046C90.1367 131.803 88.8461 131.21 87.7655 130.323C85.0135 128.01 84.1507 124.199 83.4486 120.671L81.3721 110.235L85.7196 113.233C88.846 115.388 92.0429 117.613 94.2077 120.735C96.3724 123.858 97.3173 128.12 95.578 131.498" fill="#E6E6E6"/>
<path d="M95.251 144.344C95.6911 141.134 96.1435 137.884 95.8349 134.64C95.5607 131.759 94.683 128.945 92.896 126.638C91.9475 125.416 90.7934 124.369 89.4854 123.544C89.1444 123.328 88.8305 123.869 89.17 124.084C91.4331 125.516 93.1835 127.631 94.1689 130.123C95.2572 132.895 95.432 135.917 95.2445 138.861C95.1311 140.642 94.8907 142.411 94.6485 144.177C94.6294 144.257 94.6413 144.341 94.6818 144.413C94.7223 144.484 94.7884 144.538 94.8667 144.562C94.9466 144.584 95.0317 144.573 95.1037 144.532C95.1756 144.491 95.2286 144.423 95.251 144.344Z" fill="#F2F2F2"/>
<path d="M91.0125 138.664C90.4471 139.525 89.67 140.225 88.7559 140.697C87.8419 141.17 86.8217 141.399 85.7937 141.362C83.1519 141.236 80.9494 139.39 78.9668 137.637L73.1025 132.452L76.9837 132.266C79.7748 132.133 82.6379 132.008 85.2963 132.87C87.9547 133.732 90.4064 135.806 90.8925 138.561" fill="#E6E6E6"/>
<path d="M96.4947 146.188C94.3768 142.436 91.9202 138.266 87.5307 136.933C86.3102 136.563 85.0304 136.431 83.7603 136.543C83.36 136.577 83.46 137.195 83.8595 137.161C85.9885 136.984 88.1134 137.547 89.8765 138.755C91.573 139.911 92.894 141.519 94.012 143.223C94.6969 144.268 95.3103 145.356 95.9238 146.443C96.1199 146.791 96.693 146.54 96.4947 146.188Z" fill="#F2F2F2"/>
<path d="M153.26 71.0176L107.086 109.337C106.505 109.818 105.758 110.049 105.007 109.978C104.256 109.908 103.564 109.542 103.083 108.962L83.6182 85.4459C83.1378 84.8642 82.9075 84.1154 82.9777 83.3638C83.048 82.6122 83.4131 81.9192 83.993 81.4369L130.167 43.1175C130.748 42.6364 131.496 42.4058 132.246 42.4761C132.997 42.5465 133.689 42.9121 134.171 43.4928L153.635 67.0086C154.116 67.5904 154.346 68.3392 154.276 69.0907C154.205 69.8423 153.84 70.5353 153.26 71.0176Z" fill="#CCCCCC"/>
<path d="M151.41 69.8638L106.298 107.302C105.998 107.55 105.613 107.669 105.226 107.633C104.84 107.596 104.483 107.408 104.235 107.109L85.6503 84.656C85.4028 84.3563 85.2842 83.9706 85.3204 83.5834C85.3565 83.1962 85.5446 82.8392 85.8434 82.5907L130.956 45.1522C131.255 44.9044 131.64 44.7856 132.027 44.8218C132.414 44.8581 132.77 45.0464 133.018 45.3456L151.603 67.7985C151.851 68.0982 151.969 68.484 151.933 68.8712C151.897 69.2583 151.709 69.6153 151.41 69.8638Z" fill="white"/>
<path d="M153.49 77.7008L144.211 76.8312L150.852 71.5977L154.43 75.9197C154.569 76.0847 154.656 76.288 154.678 76.5029C154.7 76.7179 154.657 76.9346 154.554 77.1247C154.487 77.2537 154.394 77.3681 154.283 77.4613C154.173 77.5518 154.046 77.6195 153.91 77.6607C153.774 77.7018 153.631 77.7154 153.49 77.7008Z" fill="#CCCCCC"/>
<path d="M134.857 61.0595L112.035 79.999C111.896 80.1147 111.735 80.2017 111.562 80.2552C111.389 80.3086 111.207 80.3275 111.027 80.3106C110.847 80.2937 110.672 80.2414 110.512 80.1567C110.351 80.072 110.21 79.9566 110.094 79.817C109.979 79.6774 109.892 79.5164 109.838 79.3432C109.785 79.17 109.766 78.9879 109.783 78.8074C109.8 78.6269 109.852 78.4515 109.937 78.2913C110.021 78.131 110.136 77.9889 110.276 77.8732L133.097 58.9337C133.237 58.8181 133.398 58.731 133.571 58.6775C133.744 58.6241 133.925 58.6053 134.106 58.6222C134.286 58.6391 134.461 58.6913 134.621 58.776C134.781 58.8607 134.923 58.9761 135.039 59.1157C135.154 59.2553 135.241 59.4163 135.294 59.5895C135.348 59.7627 135.367 59.9448 135.35 60.1253C135.333 60.3058 135.281 60.4812 135.196 60.6415C135.112 60.8018 134.996 60.9438 134.857 61.0595Z" fill="#CCCCCC"/>
<path d="M123.688 62.7087L108.296 75.4818C108.015 75.7154 107.652 75.8275 107.288 75.7934C106.924 75.7593 106.589 75.5817 106.355 75.2998C106.122 75.018 106.01 74.6548 106.044 74.2903C106.078 73.9257 106.255 73.5897 106.537 73.3561L121.928 60.5829C122.21 60.3493 122.572 60.2372 122.937 60.2713C123.301 60.3055 123.636 60.483 123.87 60.7649C124.103 61.0468 124.215 61.4099 124.181 61.7744C124.147 62.139 123.969 62.475 123.688 62.7087Z" fill="#CCCCCC"/>
<path d="M99.839 88.8316C102.218 88.8316 104.147 86.9002 104.147 84.5177C104.147 82.1351 102.218 80.2037 99.839 80.2037C97.4596 80.2037 95.5308 82.1351 95.5308 84.5177C95.5308 86.9002 97.4596 88.8316 99.839 88.8316Z" fill="#3B82F6"/>
<path d="M134.11 75.8704C134.871 75.8704 135.488 75.2523 135.488 74.4899C135.488 73.7275 134.871 73.1094 134.11 73.1094C133.348 73.1094 132.731 73.7275 132.731 74.4899C132.731 75.2523 133.348 75.8704 134.11 75.8704Z" fill="#E6E6E6"/>
<path d="M137.824 72.7872C138.586 72.7872 139.203 72.1691 139.203 71.4067C139.203 70.6443 138.586 70.0263 137.824 70.0263C137.063 70.0263 136.446 70.6443 136.446 71.4067C136.446 72.1691 137.063 72.7872 137.824 72.7872Z" fill="#E6E6E6"/>
<path d="M141.54 69.704C142.301 69.704 142.918 69.086 142.918 68.3235C142.918 67.5611 142.301 66.9431 141.54 66.9431C140.778 66.9431 140.161 67.5611 140.161 68.3235C140.161 69.086 140.778 69.704 141.54 69.704Z" fill="#E6E6E6"/>
<path d="M119.566 143.785L122.731 143.784L124.237 131.56L119.565 131.56L119.566 143.785Z" fill="#FFB8B8"/>
<path d="M118.759 142.75L124.992 142.75H124.992C125.514 142.75 126.03 142.852 126.512 143.052C126.994 143.252 127.432 143.545 127.801 143.914C128.17 144.284 128.462 144.722 128.662 145.205C128.862 145.687 128.964 146.205 128.964 146.727V146.856L118.759 146.857L118.759 142.75Z" fill="#2F2E41"/>
<path d="M108.207 143.785L111.372 143.784L112.877 131.56L108.206 131.56L108.207 143.785Z" fill="#FFB8B8"/>
<path d="M107.399 142.75L113.633 142.75H113.633C114.154 142.75 114.671 142.852 115.153 143.052C115.635 143.252 116.073 143.545 116.442 143.914C116.81 144.284 117.103 144.722 117.303 145.205C117.502 145.687 117.605 146.205 117.605 146.727V146.856L107.4 146.857L107.399 142.75Z" fill="#2F2E41"/>
<path d="M111.383 140.044H111.382L108.69 140.043C108.389 140.044 108.1 139.928 107.883 139.719C107.666 139.509 107.54 139.223 107.53 138.922L107.445 136.564C106.765 117.709 106.061 98.2112 110.419 89.4478L110.453 89.3789L124.879 88.856L127.775 115.459C127.899 116.594 127.854 117.741 127.641 118.862L123.812 139.064C123.761 139.338 123.612 139.584 123.395 139.758C123.177 139.931 122.904 140.021 122.626 140.01L119.602 139.911C119.444 139.905 119.289 139.867 119.146 139.798C119.003 139.729 118.876 139.632 118.772 139.513C118.668 139.393 118.589 139.253 118.541 139.102C118.493 138.951 118.476 138.791 118.492 138.634L120.867 119.949C120.948 119.142 120.874 118.328 120.651 117.549L117.698 107.21C117.673 107.125 117.62 107.05 117.547 106.999C117.475 106.948 117.387 106.924 117.298 106.93C117.21 106.936 117.126 106.973 117.061 107.033C116.996 107.094 116.954 107.175 116.942 107.263L112.533 139.041C112.494 139.319 112.356 139.573 112.144 139.757C111.933 139.941 111.663 140.043 111.383 140.044Z" fill="#2F2E41"/>
<path d="M113.108 62.259C116.61 62.259 119.449 59.4163 119.449 55.9098C119.449 52.4032 116.61 49.5606 113.108 49.5606C109.606 49.5606 106.767 52.4032 106.767 55.9098C106.767 59.4163 109.606 62.259 113.108 62.259Z" fill="#FFB8B8"/>
<path d="M124.203 90.8198H111.083C110.916 90.8198 110.751 90.7839 110.599 90.7144C110.448 90.645 110.313 90.5437 110.204 90.4174C110.095 90.291 110.014 90.1427 109.967 89.9824C109.921 89.8221 109.909 89.6536 109.933 89.4884L110.581 85.0431L106.775 74.5597C106.382 73.4775 106.236 72.3209 106.347 71.1747C106.459 70.0286 106.826 68.9221 107.42 67.9362C108.014 66.9504 108.822 66.1104 109.782 65.4776C110.743 64.8449 111.834 64.4357 112.973 64.2798C114.597 64.0531 116.25 64.3528 117.691 65.135C119.132 65.9172 120.285 67.1408 120.982 68.6267L121.818 70.408L125.346 89.4445C125.377 89.6124 125.371 89.785 125.328 89.9502C125.285 90.1154 125.206 90.2691 125.097 90.4004C124.988 90.5317 124.851 90.6373 124.697 90.7098C124.542 90.7823 124.374 90.8198 124.203 90.8198Z" fill="#3B82F6"/>
<path d="M96.5052 101.971C96.9001 101.879 97.2701 101.701 97.5892 101.451C97.9082 101.2 98.1685 100.883 98.3518 100.521C98.535 100.159 98.6367 99.7606 98.6497 99.3548C98.6627 98.949 98.5868 98.5453 98.4271 98.1722L108.651 75.0431L102.802 73.5681L94.5917 96.767C93.9833 97.0771 93.5097 97.5999 93.2606 98.2363C93.0115 98.8727 93.0042 99.5785 93.2401 100.22C93.476 100.861 93.9386 101.394 94.5404 101.717C95.1421 102.039 95.8412 102.13 96.5052 101.971Z" fill="#FFB8B8"/>
<path d="M107.267 79.1796L101.579 76.5135C101.417 76.4376 101.274 76.3277 101.158 76.1913C101.042 76.0548 100.958 75.895 100.909 75.7228C100.861 75.5505 100.85 75.3698 100.878 75.1931C100.905 75.0163 100.971 74.8475 101.069 74.6983L104.526 69.4707C104.919 68.6443 105.623 68.0074 106.484 67.6996C107.344 67.3918 108.292 67.4382 109.118 67.8286C109.945 68.219 110.583 68.9216 110.894 69.7824C111.204 70.6432 111.161 71.5921 110.774 72.4211L108.986 78.4088C108.935 78.5803 108.847 78.7386 108.729 78.8731C108.611 79.0076 108.466 79.1151 108.303 79.1882C108.14 79.2614 107.963 79.2985 107.784 79.297C107.606 79.2955 107.429 79.2555 107.267 79.1796Z" fill="#3B82F6"/>
<path d="M139.155 42.4528C139.278 42.8395 139.316 43.2486 139.264 43.6513C139.213 44.054 139.074 44.4405 138.857 44.7836C138.64 45.1266 138.351 45.4179 138.009 45.6369C137.668 45.8559 137.283 45.9973 136.881 46.051L122.277 66.6887L118.016 62.414L133.711 43.472C133.666 42.79 133.872 42.1149 134.29 41.5748C134.708 41.0347 135.31 40.6669 135.981 40.5413C136.652 40.4157 137.346 40.5409 137.931 40.8932C138.516 41.2455 138.951 41.8004 139.155 42.4528Z" fill="#FFB8B8"/>
<path d="M125.654 64.2663C125.675 64.4441 125.657 64.6242 125.602 64.7944C125.547 64.9647 125.456 65.121 125.335 65.2528L121.114 69.8566C120.602 70.6147 119.81 71.1383 118.912 71.3127C118.014 71.487 117.084 71.2978 116.326 70.7866C115.567 70.2754 115.042 69.4839 114.866 68.5856C114.689 67.6873 114.876 66.7556 115.384 65.9947L118.098 60.3444C118.176 60.1831 118.287 60.0405 118.424 59.9262C118.562 59.8119 118.722 59.7286 118.895 59.682C119.067 59.6354 119.248 59.6265 119.424 59.6561C119.6 59.6856 119.768 59.7529 119.916 59.8532L125.116 63.3801C125.264 63.4804 125.389 63.6115 125.482 63.7644C125.574 63.9174 125.633 64.0886 125.654 64.2663Z" fill="#3B82F6"/>
<path d="M121.439 53.2522C121.435 52.6776 121.355 52.106 121.202 51.5523C120.18 47.7723 116.409 45.5036 112.624 46.0729C111.888 45.8616 111.126 45.7547 110.361 45.7555C108.413 45.7555 106.529 46.453 105.05 47.7219C103.57 48.9908 102.593 50.7476 102.294 52.6749L99.2368 72.3816H115.759L118.427 55.1844C118.526 54.5453 118.55 53.8967 118.497 53.2522H121.439Z" fill="#2F2E41"/>
<path d="M141.975 147H87.5023C87.4338 147 87.3682 146.973 87.3198 146.924C87.2713 146.876 87.2441 146.81 87.2441 146.742C87.2441 146.673 87.2713 146.607 87.3198 146.559C87.3682 146.51 87.4338 146.483 87.5023 146.483H141.975C142.044 146.483 142.11 146.51 142.158 146.559C142.206 146.607 142.234 146.673 142.234 146.742C142.234 146.81 142.206 146.876 142.158 146.924C142.11 146.973 142.044 147 141.975 147Z" fill="#CCCCCC"/>
<path d="M196.854 20.0775C197.231 20.0411 197.612 20.0881 197.97 20.2151C198.328 20.3422 198.653 20.5462 198.924 20.8129C199.194 21.0795 199.403 21.4023 199.535 21.7585C199.668 22.1147 199.72 22.4956 199.69 22.8743L208.134 26.5955L204.106 29.1989L196.705 25.2661C196.073 25.1725 195.497 24.85 195.086 24.3597C194.676 23.8693 194.459 23.2453 194.478 22.6057C194.496 21.9662 194.748 21.3555 195.186 20.8896C195.624 20.4236 196.217 20.1347 196.854 20.0775Z" fill="#A0616A"/>
<path d="M230.914 15.4355C234.416 15.4355 237.255 12.5929 237.255 9.08638C237.255 5.57983 234.416 2.73721 230.914 2.73721C227.412 2.73721 224.573 5.57983 224.573 9.08638C224.573 12.5929 227.412 15.4355 230.914 15.4355Z" fill="#A0616A"/>
<path d="M219.438 99.6188L216.273 99.6185L214.768 87.3943L219.439 87.3946L219.438 99.6188Z" fill="#A0616A"/>
<path d="M220.245 102.691L210.04 102.69V102.561C210.04 102.039 210.142 101.522 210.342 101.039C210.542 100.556 210.834 100.118 211.203 99.7487C211.572 99.3793 212.01 99.0864 212.492 98.8865C212.974 98.6866 213.49 98.5837 214.012 98.5837L220.245 98.584L220.245 102.691Z" fill="#2F2E41"/>
<path d="M232.604 99.6188L229.439 99.6185L227.934 87.3943L232.605 87.3946L232.604 99.6188Z" fill="#A0616A"/>
<path d="M233.411 102.691L223.206 102.69V102.561C223.206 102.039 223.309 101.522 223.508 101.039C223.708 100.556 224.001 100.118 224.369 99.7487C224.738 99.3793 225.176 99.0864 225.658 98.8865C226.14 98.6866 226.657 98.5837 227.178 98.5837L233.412 98.584L233.411 102.691Z" fill="#2F2E41"/>
<path d="M232.455 97.0151C232.407 97.0151 232.36 97.0121 232.313 97.0063L227.68 96.4353C227.409 96.4022 227.158 96.2742 226.971 96.0739C226.785 95.8736 226.675 95.6138 226.662 95.3404L225.312 64.8978C225.307 64.8114 225.274 64.7291 225.217 64.6638C225.16 64.5986 225.083 64.5542 224.999 64.5378C224.914 64.5213 224.826 64.5337 224.749 64.573C224.672 64.6123 224.61 64.6763 224.574 64.7547L221.106 76.3316L220.391 94.9276C220.385 95.088 220.346 95.2453 220.276 95.3898C220.206 95.5342 220.108 95.6626 219.986 95.7669C219.864 95.8712 219.722 95.9491 219.569 95.9957C219.415 96.0424 219.254 96.0567 219.095 96.0379L215.083 95.5651C214.796 95.5321 214.532 95.3931 214.342 95.1752C214.152 94.9572 214.05 94.6762 214.057 94.3871L214.398 76.8827L217.116 49.4056L217.237 49.4102L233.766 50.0481L233.617 95.8556C233.616 96.1635 233.493 96.4584 233.275 96.6757C233.057 96.893 232.762 97.0151 232.455 97.0151Z" fill="#2F2E41"/>
<path d="M233.139 52.559C233.129 52.559 233.119 52.559 233.109 52.5587L216.462 52.122C216.299 52.1177 216.139 52.0791 215.992 52.0085C215.844 51.938 215.714 51.8372 215.608 51.7127C215.502 51.5882 215.424 51.4428 215.378 51.286C215.332 51.1291 215.32 50.9644 215.342 50.8024L218.54 27.2289C218.74 25.6372 219.273 24.1056 220.104 22.734C220.935 21.3624 222.045 20.1817 223.363 19.269C224.522 18.4701 225.838 17.9288 227.223 17.6815C228.609 17.4342 230.031 17.4866 231.394 17.8351C237.204 19.3094 240.69 25.5567 239.164 31.7614L234.267 51.6739C234.204 51.9259 234.059 52.1497 233.855 52.31C233.65 52.4702 233.399 52.5578 233.139 52.559Z" fill="#3F3D56"/>
<path d="M211.3 33.8395C210.203 33.8409 209.13 33.5215 208.212 32.9206L198.504 26.5433C198.362 26.45 198.242 26.3266 198.153 26.1818C198.063 26.037 198.007 25.8744 197.987 25.7053C197.968 25.5363 197.985 25.365 198.039 25.2036C198.093 25.0421 198.181 24.8944 198.298 24.7709L199.76 23.2249C199.92 23.0554 200.126 22.938 200.354 22.8878C200.581 22.8377 200.818 22.8573 201.033 22.9439L211.877 27.2676L221.922 20.0847C222.391 19.7489 222.926 19.5143 223.491 19.3958C224.055 19.2774 224.639 19.2776 225.204 19.3966C225.768 19.5155 226.302 19.7505 226.772 20.0868C227.241 20.423 227.636 20.8532 227.931 21.35C228.226 21.8468 228.414 22.3995 228.485 22.9731C228.555 23.5467 228.506 24.1287 228.34 24.6823C228.175 25.2359 227.896 25.749 227.522 26.1892C227.148 26.6294 226.687 26.987 226.168 27.2395L213.753 33.2776C212.988 33.6483 212.15 33.8404 211.3 33.8395Z" fill="#3F3D56"/>
<path d="M233.111 15.1582C234.193 15.4139 235.498 15.6102 236.271 14.8105C236.408 14.6596 236.53 14.496 236.636 14.3219L237.647 12.7767C238.422 11.5931 239.209 10.3785 239.537 9.00208C239.725 8.21118 239.755 7.39069 239.624 6.58827C239.493 5.78586 239.204 5.01751 238.774 4.32788C238.344 3.63824 237.781 3.04106 237.118 2.57102C236.456 2.10097 235.707 1.76744 234.914 1.58979C233.405 1.25146 231.928 0.669313 230.385 0.775502C228.843 0.881691 227.033 0.846829 225.738 -1.52588e-05C225.819 0.377522 226.255 2.04565 226.255 2.04565C226.255 2.04565 224.308 3.83416 223.918 4.28013C224.429 4.05324 224.985 3.94671 225.544 3.96873C226.103 3.99074 226.649 4.14071 227.141 4.40711C227.632 4.67351 228.056 5.04925 228.381 5.50545C228.705 5.96165 228.92 6.48617 229.01 7.0387C229.12 7.71749 229.055 8.4703 229.458 9.02743C229.841 9.55731 230.528 9.74297 231.106 10.0489C231.938 10.5238 232.574 11.2808 232.898 12.1835C233.222 13.0863 233.213 14.0752 232.873 14.9721L233.111 15.1582Z" fill="#2F2E41"/>
<path d="M225.498 54.8329H172.938C172.277 54.8321 171.644 54.569 171.177 54.1012C170.709 53.6334 170.447 52.9991 170.446 52.3375V25.5693C170.447 24.9077 170.709 24.2735 171.177 23.8057C171.644 23.3379 172.277 23.0747 172.938 23.074H225.498C226.159 23.0747 226.792 23.3379 227.259 23.8057C227.726 24.2735 227.989 24.9078 227.99 25.5693V52.3375C227.989 52.9991 227.726 53.6334 227.259 54.1012C226.792 54.569 226.159 54.8321 225.498 54.8329Z" fill="#CCCCCC"/>
<path d="M224.894 53.0181H173.542C173.202 53.0177 172.875 52.8822 172.635 52.6412C172.394 52.4002 172.259 52.0735 172.258 51.7326V26.1743C172.259 25.8335 172.394 25.5067 172.635 25.2657C172.875 25.0247 173.202 24.8892 173.542 24.8888H224.894C225.234 24.8892 225.56 25.0247 225.801 25.2657C226.042 25.5067 226.177 25.8335 226.178 26.1743V51.7326C226.177 52.0735 226.042 52.4002 225.801 52.6412C225.56 52.8822 225.234 53.0177 224.894 53.0181Z" fill="white"/>
<path d="M221.92 59.471L216.145 53.6882L223.549 53.8756V58.7954C223.551 58.9848 223.496 59.1704 223.39 59.3279C223.285 59.4854 223.135 59.6075 222.96 59.6781C222.842 59.7274 222.716 59.753 222.588 59.7533C222.464 59.7529 222.341 59.7277 222.226 59.6793C222.111 59.6308 222.007 59.56 221.92 59.471Z" fill="#CCCCCC"/>
<path d="M218.642 37.8073H192.664C192.343 37.8073 192.036 37.6798 191.809 37.4529C191.583 37.226 191.456 36.9183 191.456 36.5974C191.456 36.2766 191.583 35.9688 191.809 35.7419C192.036 35.515 192.343 35.3876 192.664 35.3876H218.642C218.962 35.3876 219.27 35.515 219.496 35.7419C219.723 35.9688 219.85 36.2766 219.85 36.5974C219.85 36.9183 219.723 37.226 219.496 37.4529C219.27 37.6798 218.962 37.8073 218.642 37.8073Z" fill="#CCCCCC"/>
<path d="M210.184 32.6654H192.664C192.505 32.6656 192.348 32.6345 192.201 32.5738C192.054 32.5131 191.921 32.424 191.808 32.3116C191.696 32.1993 191.607 32.0658 191.546 31.9189C191.485 31.772 191.454 31.6145 191.454 31.4555C191.454 31.2965 191.485 31.139 191.546 30.9921C191.607 30.8452 191.696 30.7118 191.808 30.5994C191.921 30.487 192.054 30.3979 192.201 30.3372C192.348 30.2765 192.505 30.2454 192.664 30.2457H210.184C210.504 30.2457 210.811 30.3731 211.038 30.6C211.265 30.8269 211.392 31.1346 211.392 31.4555C211.392 31.7764 211.265 32.0841 211.038 32.311C210.811 32.5379 210.504 32.6654 210.184 32.6654Z" fill="#CCCCCC"/>
<path d="M181.91 37.8073C183.995 37.8073 185.686 36.1146 185.686 34.0265C185.686 31.9384 183.995 30.2457 181.91 30.2457C179.824 30.2457 178.134 31.9384 178.134 34.0265C178.134 36.1146 179.824 37.8073 181.91 37.8073Z" fill="#3B82F6"/>
<path d="M210.636 47.6612C211.303 47.6612 211.844 47.1196 211.844 46.4514C211.844 45.7832 211.303 45.2415 210.636 45.2415C209.969 45.2415 209.428 45.7832 209.428 46.4514C209.428 47.1196 209.969 47.6612 210.636 47.6612Z" fill="#E6E6E6"/>
<path d="M214.865 47.6612C215.532 47.6612 216.073 47.1196 216.073 46.4514C216.073 45.7832 215.532 45.2415 214.865 45.2415C214.198 45.2415 213.657 45.7832 213.657 46.4514C213.657 47.1196 214.198 47.6612 214.865 47.6612Z" fill="#E6E6E6"/>
<path d="M219.094 47.6612C219.761 47.6612 220.302 47.1196 220.302 46.4514C220.302 45.7832 219.761 45.2415 219.094 45.2415C218.427 45.2415 217.886 45.7832 217.886 46.4514C217.886 47.1196 218.427 47.6612 219.094 47.6612Z" fill="#E6E6E6"/>
<path d="M224.684 51.6495C224.726 51.2718 224.85 50.9079 225.047 50.5833C225.245 50.2587 225.511 49.9814 225.827 49.7709C226.143 49.5605 226.501 49.4219 226.876 49.3651C227.252 49.3082 227.635 49.3345 227.999 49.442L233.364 41.9274L235.085 46.4079L229.726 52.857C229.505 53.4573 229.072 53.9558 228.509 54.2578C227.945 54.5598 227.291 54.6444 226.67 54.4956C226.048 54.3467 225.503 53.9748 225.137 53.4503C224.771 52.9257 224.61 52.285 224.684 51.6495Z" fill="#A0616A"/>
<path d="M230.83 51.2441C230.746 51.2511 230.661 51.249 230.577 51.2377C230.409 51.2151 230.247 51.1557 230.104 51.0637C229.961 50.9717 229.84 50.8493 229.75 50.7052L228.616 48.9038C228.491 48.7072 228.428 48.4774 228.436 48.2446C228.444 48.0118 228.522 47.7867 228.659 47.5988L235.527 38.1495L231.063 26.6264C230.664 25.6126 230.679 24.4824 231.105 23.4795C231.531 22.4767 232.333 21.6814 233.338 21.2652C233.907 21.0265 234.521 20.9169 235.136 20.9443C235.752 20.9717 236.354 21.1353 236.899 21.4234C237.444 21.7115 237.918 22.117 238.288 22.6106C238.657 23.1042 238.913 23.6737 239.037 24.2782L241.806 37.817C241.999 38.7718 241.942 39.7603 241.642 40.6866C241.341 41.613 240.806 42.4459 240.09 43.1046L231.516 50.9439C231.327 51.1171 231.086 51.2227 230.83 51.2441Z" fill="#3F3D56"/>
<path d="M245.242 103.313H190.769C190.7 103.313 190.635 103.285 190.586 103.237C190.538 103.188 190.511 103.123 190.511 103.054C190.511 102.985 190.538 102.92 190.586 102.871C190.635 102.823 190.7 102.796 190.769 102.796H245.242C245.311 102.796 245.376 102.823 245.425 102.871C245.473 102.92 245.5 102.985 245.5 103.054C245.5 103.123 245.473 103.188 245.425 103.237C245.376 103.285 245.311 103.313 245.242 103.313Z" fill="#CCCCCC"/>
<path d="M66.7503 38.9765H14.1903C13.5296 38.9758 12.8962 38.7126 12.429 38.2448C11.9618 37.777 11.699 37.1427 11.6982 36.4812V9.71296C11.699 9.05138 11.9618 8.41711 12.429 7.9493C12.8962 7.48149 13.5296 7.21835 14.1903 7.21761H66.7503C67.411 7.21835 68.0444 7.4815 68.5116 7.9493C68.9788 8.41711 69.2416 9.05138 69.2424 9.71296V36.4812C69.2416 37.1428 68.9788 37.777 68.5116 38.2448C68.0444 38.7126 67.411 38.9758 66.7503 38.9765Z" fill="#CCCCCC"/>
<path d="M66.1458 37.1617H14.794C14.4537 37.1614 14.1274 37.0258 13.8867 36.7848C13.646 36.5438 13.5106 36.2171 13.5103 35.8762V10.3179C13.5106 9.97708 13.646 9.65033 13.8867 9.40934C14.1274 9.16834 14.4537 9.03279 14.794 9.03241H66.1458C66.4861 9.03279 66.8124 9.16834 67.0531 9.40934C67.2938 9.65033 67.4292 9.97708 67.4295 10.3179V35.8762C67.4292 36.2171 67.2938 36.5438 67.0531 36.7848C66.8124 37.0258 66.4861 37.1614 66.1458 37.1617Z" fill="white"/>
<path d="M63.1718 43.6146L57.3965 37.8318L64.8007 38.0192V42.939C64.8027 43.1284 64.7475 43.314 64.6424 43.4715C64.5373 43.6291 64.3872 43.7511 64.2116 43.8218C64.0941 43.871 63.9679 43.8966 63.8404 43.8969C63.7159 43.8965 63.5926 43.8714 63.4778 43.8229C63.3631 43.7744 63.259 43.7036 63.1718 43.6146Z" fill="#CCCCCC"/>
<path d="M59.8937 21.9509H33.9158C33.5953 21.9509 33.288 21.8235 33.0614 21.5966C32.8348 21.3697 32.7075 21.0619 32.7075 20.7411C32.7075 20.4202 32.8348 20.1124 33.0614 19.8855C33.288 19.6587 33.5953 19.5312 33.9158 19.5312H59.8937C60.2142 19.5312 60.5215 19.6587 60.7481 19.8855C60.9747 20.1124 61.102 20.4202 61.102 20.7411C61.102 21.0619 60.9747 21.3697 60.7481 21.5966C60.5215 21.8235 60.2142 21.9509 59.8937 21.9509Z" fill="#CCCCCC"/>
<path d="M51.4358 16.809H33.9158C33.5953 16.809 33.288 16.6815 33.0614 16.4546C32.8348 16.2278 32.7075 15.92 32.7075 15.5991C32.7075 15.2783 32.8348 14.9705 33.0614 14.7436C33.288 14.5167 33.5953 14.3893 33.9158 14.3893H51.4358C51.7562 14.3893 52.0636 14.5167 52.2902 14.7436C52.5168 14.9705 52.6441 15.2783 52.6441 15.5991C52.6441 15.92 52.5168 16.2278 52.2902 16.4546C52.0636 16.6815 51.7562 16.809 51.4358 16.809Z" fill="#CCCCCC"/>
<path d="M23.1621 21.9509C25.2474 21.9509 26.938 20.2582 26.938 18.1701C26.938 16.082 25.2474 14.3893 23.1621 14.3893C21.0767 14.3893 19.3862 16.082 19.3862 18.1701C19.3862 20.2582 21.0767 21.9509 23.1621 21.9509Z" fill="#3B82F6"/>
<path d="M51.888 31.8049C52.5553 31.8049 53.0962 31.2632 53.0962 30.595C53.0962 29.9268 52.5553 29.3851 51.888 29.3851C51.2206 29.3851 50.6797 29.9268 50.6797 30.595C50.6797 31.2632 51.2206 31.8049 51.888 31.8049Z" fill="#E6E6E6"/>
<path d="M56.117 31.8049C56.7843 31.8049 57.3252 31.2632 57.3252 30.595C57.3252 29.9268 56.7843 29.3851 56.117 29.3851C55.4497 29.3851 54.9087 29.9268 54.9087 30.595C54.9087 31.2632 55.4497 31.8049 56.117 31.8049Z" fill="#E6E6E6"/>
<path d="M60.346 31.8049C61.0133 31.8049 61.5542 31.2632 61.5542 30.595C61.5542 29.9268 61.0133 29.3851 60.346 29.3851C59.6787 29.3851 59.1377 29.9268 59.1377 30.595C59.1377 31.2632 59.6787 31.8049 60.346 31.8049Z" fill="#E6E6E6"/>
<path d="M64.5705 4.64571C64.2134 4.77443 63.8889 4.97998 63.6197 5.24789C63.3505 5.5158 63.1433 5.83955 63.0126 6.19633C62.8819 6.55311 62.8309 6.93425 62.8632 7.3129C62.8955 7.69154 63.0104 8.05849 63.1997 8.38788L57.1533 15.365L61.9059 15.9954L66.919 9.2732C67.4505 8.91813 67.8335 8.38016 67.9954 7.76123C68.1573 7.14229 68.0869 6.48539 67.7974 5.915C67.5079 5.3446 67.0196 4.90035 66.4248 4.66641C65.8301 4.43247 65.1703 4.42511 64.5705 4.64571Z" fill="#FFB8B8"/>
<path d="M24.199 7.43901C24.328 7.79642 24.3771 8.1778 24.343 8.55628C24.3088 8.93477 24.1922 9.30115 24.0013 9.62962C23.8105 9.95809 23.55 10.2407 23.2383 10.4574C22.9265 10.6742 22.5711 10.8199 22.1971 10.8843L20.6925 19.9982L17.1743 16.7373L19.1425 8.58246C19.0762 7.9461 19.2453 7.30748 19.6178 6.78762C19.9903 6.26776 20.5403 5.90277 21.1635 5.76183C21.7868 5.62088 22.4401 5.71376 22.9995 6.02288C23.559 6.33199 23.9858 6.83587 24.199 7.43901Z" fill="#FFB8B8"/>
<path d="M33.6485 99.6188L36.8136 99.6185L38.3192 87.3943L33.6479 87.3946L33.6485 99.6188Z" fill="#FFB8B8"/>
<path d="M32.8408 98.584L39.0739 98.5837H39.0742C39.5958 98.5837 40.1124 98.6866 40.5943 98.8865C41.0763 99.0864 41.5142 99.3793 41.883 99.7487C42.2519 100.118 42.5445 100.556 42.7441 101.039C42.9437 101.522 43.0465 102.039 43.0465 102.561V102.69L32.841 102.691L32.8408 98.584Z" fill="#2F2E41"/>
<path d="M17.3838 99.6188L20.5489 99.6185L22.0546 87.3943L17.3833 87.3946L17.3838 99.6188Z" fill="#FFB8B8"/>
<path d="M16.5767 98.584L22.8098 98.5837H22.81C23.3317 98.5837 23.8482 98.6866 24.3302 98.8865C24.8121 99.0864 25.25 99.3793 25.6189 99.7487C25.9877 100.118 26.2803 100.556 26.48 101.039C26.6796 101.522 26.7823 102.039 26.7823 102.561V102.69L16.5769 102.691L16.5767 98.584Z" fill="#2F2E41"/>
<path d="M32.9878 16.1587C36.4898 16.1587 39.3286 13.3161 39.3286 9.80954C39.3286 6.30299 36.4898 3.46037 32.9878 3.46037C29.4859 3.46037 26.647 6.30299 26.647 9.80954C26.647 13.3161 29.4859 16.1587 32.9878 16.1587Z" fill="#FFB8B8"/>
<path d="M32.2274 95.5578L31.7031 62.1056C31.7018 62.011 31.666 61.9202 31.6025 61.8502C31.5389 61.7802 31.452 61.7359 31.3581 61.7256C31.2643 61.7153 31.1698 61.7398 31.0927 61.7943C31.0155 61.8488 30.9609 61.9297 30.9392 62.0218L22.3445 94.7424C22.2799 95.0043 22.1274 95.2359 21.9126 95.3987C21.6978 95.5614 21.4337 95.6454 21.1645 95.6366L16.4426 95.4344C16.2821 95.4275 16.1247 95.3873 15.9805 95.3164C15.8363 95.2455 15.7083 95.1454 15.6046 95.0225C15.501 94.8996 15.4239 94.7564 15.3783 94.6021C15.3327 94.4479 15.3196 94.2858 15.3397 94.1262L22.6326 52.0781L22.6475 51.9595L42.9606 52.9218L43.0931 52.9279L38.7372 95.6278C38.7144 95.9201 38.5825 96.1931 38.3679 96.3926C38.1533 96.5921 37.8716 96.7035 37.5788 96.7047H33.389C33.0841 96.7035 32.7918 96.5828 32.5747 96.3684C32.3576 96.1541 32.2329 95.8631 32.2274 95.5578Z" fill="#2F2E41"/>
<path d="M48.2711 55.7555L18.7942 53.3333C18.6163 53.3187 18.4442 53.2632 18.2911 53.1712C18.1381 53.0792 18.0083 52.9531 17.9118 52.8027C17.8153 52.6523 17.7548 52.4817 17.7348 52.304C17.7149 52.1264 17.7361 51.9466 17.7968 51.7785L22.4388 38.9277L22.7059 23.6751C22.7156 23.1214 22.835 22.5751 23.0572 22.068C23.2793 21.5609 23.5999 21.103 24.0001 20.7208C24.4004 20.3387 24.8725 20.04 25.3889 19.8419C25.9054 19.6439 26.456 19.5505 27.0088 19.5672L28.9691 17.788H36.1511L36.7765 18.609L41.7739 19.3779C42.664 19.5186 43.4854 19.9422 44.1167 20.5861C44.748 21.23 45.1558 22.0601 45.2798 22.9538L49.5174 54.441C49.5395 54.6053 49.5263 54.7724 49.4786 54.9311C49.431 55.0898 49.35 55.2365 49.2411 55.3614C49.1322 55.4862 48.998 55.5863 48.8473 55.655C48.6967 55.7237 48.5331 55.7593 48.3676 55.7596C48.3356 55.7596 48.3034 55.7583 48.2711 55.7555Z" fill="#2F2E41"/>
<path d="M42.5278 20.8565L55.0963 17.1692L60.7844 9.67054C60.941 9.46401 61.162 9.3158 61.4124 9.24948C61.6628 9.18316 61.9281 9.20253 62.1662 9.3045L65.7176 10.8245C65.869 10.8893 66.005 10.9856 66.1164 11.107C66.2278 11.2284 66.3122 11.3721 66.3639 11.5286C66.4157 11.6851 66.4336 11.8509 66.4165 12.0149C66.3994 12.1789 66.3476 12.3373 66.2647 12.4798L62.0139 19.7841C61.3217 20.9789 60.2681 21.9225 59.0052 22.4785L44.2223 29.0219L42.5278 20.8565Z" fill="#2F2E41"/>
<path d="M18.4147 26.3722C17.6637 25.8304 17.0647 25.1039 16.6756 24.2628C16.2865 23.4217 16.1205 22.4944 16.1935 21.5704L16.7451 14.2527C16.7679 13.9604 16.8997 13.6875 17.1144 13.4881C17.3291 13.2888 17.6109 13.1777 17.9036 13.177H17.9139L22.0786 13.2142C22.2492 13.2157 22.4174 13.2549 22.5712 13.3289C22.725 13.4028 22.8606 13.5098 22.9685 13.6422C23.0763 13.7746 23.1537 13.9292 23.1952 14.0949C23.2366 14.2606 23.2411 14.4334 23.2084 14.6011L22.4356 18.5489L27.9501 20.882L23.3064 29.9279L18.4147 26.3722Z" fill="#2F2E41"/>
<path d="M36.6764 2.19629C36.6764 2.19629 30.0454 -1.3789 26.4311 2.84059C22.8168 7.06008 27.8081 13.6584 27.8081 13.6584L34.9201 14.5566C34.9201 14.5566 35.1783 9.71568 36.8716 9.80966C38.5649 9.90364 43.8238 3.79515 36.6764 2.19629Z" fill="#2F2E41"/>
<path d="M55.2313 103.054H0.758166C0.689696 103.054 0.624031 103.027 0.575615 102.978C0.527199 102.93 0.5 102.864 0.5 102.796C0.5 102.727 0.527199 102.661 0.575615 102.613C0.624031 102.564 0.689696 102.537 0.758166 102.537H55.2313C55.2998 102.537 55.3654 102.564 55.4138 102.613C55.4623 102.661 55.4895 102.727 55.4895 102.796C55.4895 102.864 55.4623 102.93 55.4138 102.978C55.3654 103.027 55.2998 103.054 55.2313 103.054Z" fill="#CCCCCC"/>
</g>
<defs>
<clipPath id="clip0_27_1477">
<rect width="245" height="147" fill="white" transform="translate(0.5)"/>
</clipPath>
</defs>
</svg>
