<svg width="524" height="314" viewBox="0 0 524 314" fill="none" xmlns="http://www.w3.org/2000/svg">
<g clip-path="url(#clip0_47_3084)">
<path d="M203.52 281.337C200.704 282.328 197.681 282.576 194.741 282.058C191.802 281.539 189.045 280.271 186.737 278.376C180.859 273.436 179.015 265.297 177.516 257.76L173.08 235.469L182.367 241.871C189.045 246.476 195.874 251.228 200.498 257.897C205.122 264.566 207.14 273.671 203.425 280.887" fill="#E6E6E6"/>
<path d="M202.726 308.326C203.666 301.47 204.633 294.527 203.974 287.598C203.388 281.444 201.513 275.434 197.696 270.506C195.67 267.895 193.205 265.658 190.411 263.896C189.682 263.435 189.012 264.591 189.737 265.05C194.571 268.109 198.31 272.626 200.415 277.95C202.74 283.871 203.113 290.325 202.712 296.614C202.47 300.418 201.957 304.197 201.439 307.97C201.399 308.141 201.424 308.321 201.511 308.473C201.597 308.626 201.738 308.74 201.906 308.792C202.076 308.838 202.258 308.815 202.412 308.728C202.565 308.64 202.679 308.496 202.726 308.326Z" fill="#F2F2F2"/>
<path d="M193.673 296.195C192.466 298.033 190.806 299.528 188.853 300.537C186.901 301.546 184.722 302.035 182.526 301.956C176.883 301.688 172.178 297.744 167.943 294L155.417 282.926L163.707 282.528C169.669 282.243 175.785 281.976 181.463 283.817C187.142 285.658 192.379 290.089 193.417 295.974" fill="#E6E6E6"/>
<path d="M205.383 312.266C200.859 304.251 195.611 295.343 186.235 292.496C183.628 291.707 180.895 291.424 178.182 291.663C177.326 291.737 177.54 293.057 178.393 292.983C182.941 292.605 187.48 293.807 191.246 296.388C194.87 298.858 197.692 302.292 200.08 305.933C201.543 308.164 202.853 310.489 204.164 312.811C204.582 313.553 205.807 313.017 205.383 312.266Z" fill="#F2F2F2"/>
<path d="M326.638 151.698L228.008 233.55C226.767 234.578 225.17 235.07 223.567 234.92C221.963 234.77 220.485 233.989 219.456 232.748L177.879 182.517C176.853 181.275 176.361 179.675 176.511 178.07C176.661 176.464 177.441 174.984 178.679 173.954L277.309 92.1013C278.55 91.0737 280.148 90.5811 281.751 90.7314C283.354 90.8816 284.833 91.6626 285.862 92.9029L327.439 143.134C328.465 144.377 328.957 145.976 328.807 147.582C328.657 149.187 327.877 150.667 326.638 151.698Z" fill="#CCCCCC"/>
<path d="M322.686 149.233L226.323 229.204C225.684 229.733 224.861 229.987 224.035 229.909C223.209 229.832 222.447 229.43 221.917 228.791L182.219 180.83C181.691 180.19 181.437 179.366 181.515 178.539C181.592 177.712 181.994 176.949 182.632 176.418L278.994 96.4477C279.634 95.9183 280.457 95.6645 281.283 95.7419C282.109 95.8194 282.87 96.2217 283.4 96.8606L323.098 144.821C323.627 145.462 323.88 146.286 323.803 147.113C323.726 147.94 323.324 148.702 322.686 149.233Z" fill="white"/>
<path d="M327.128 165.973L307.308 164.116L321.494 152.937L329.135 162.169C329.433 162.521 329.618 162.955 329.665 163.414C329.713 163.874 329.621 164.337 329.401 164.742C329.257 165.018 329.06 165.262 328.821 165.462C328.587 165.655 328.316 165.8 328.026 165.887C327.735 165.975 327.43 166.004 327.128 165.973Z" fill="#CCCCCC"/>
<path d="M287.327 130.426L238.579 170.882C238.281 171.129 237.938 171.315 237.568 171.429C237.199 171.544 236.81 171.584 236.425 171.548C236.04 171.512 235.666 171.4 235.324 171.219C234.982 171.038 234.679 170.792 234.432 170.493C234.186 170.195 234 169.851 233.886 169.481C233.772 169.111 233.732 168.723 233.768 168.337C233.804 167.951 233.915 167.577 234.096 167.234C234.277 166.892 234.523 166.589 234.821 166.341L283.569 125.886C283.866 125.639 284.21 125.453 284.579 125.338C284.949 125.224 285.337 125.184 285.722 125.22C286.107 125.256 286.482 125.368 286.824 125.549C287.165 125.73 287.468 125.976 287.715 126.274C287.962 126.573 288.148 126.916 288.262 127.286C288.376 127.656 288.416 128.045 288.38 128.431C288.344 128.816 288.232 129.191 288.052 129.533C287.871 129.876 287.625 130.179 287.327 130.426Z" fill="#CCCCCC"/>
<path d="M263.469 133.949L230.592 161.233C229.991 161.732 229.216 161.972 228.439 161.899C227.661 161.826 226.944 161.447 226.446 160.845C225.947 160.242 225.708 159.467 225.781 158.688C225.854 157.909 226.233 157.192 226.834 156.693L259.711 129.408C260.312 128.909 261.087 128.67 261.864 128.743C262.642 128.816 263.359 129.195 263.857 129.797C264.356 130.399 264.595 131.175 264.522 131.954C264.449 132.732 264.07 133.45 263.469 133.949Z" fill="#CCCCCC"/>
<path d="M212.527 189.749C217.609 189.749 221.73 185.624 221.73 180.534C221.73 175.445 217.609 171.32 212.527 171.32C207.444 171.32 203.324 175.445 203.324 180.534C203.324 185.624 207.444 189.749 212.527 189.749Z" fill="#16A34A"/>
<path d="M285.731 162.063C287.357 162.063 288.675 160.743 288.675 159.115C288.675 157.486 287.357 156.166 285.731 156.166C284.104 156.166 282.786 157.486 282.786 159.115C282.786 160.743 284.104 162.063 285.731 162.063Z" fill="#E6E6E6"/>
<path opacity="0.1" d="M293.666 155.477C295.293 155.477 296.611 154.157 296.611 152.529C296.611 150.9 295.293 149.58 293.666 149.58C292.04 149.58 290.721 150.9 290.721 152.529C290.721 154.157 292.04 155.477 293.666 155.477Z" fill="#E6E6E6"/>
<path d="M301.602 148.892C303.229 148.892 304.547 147.571 304.547 145.943C304.547 144.314 303.229 142.994 301.602 142.994C299.976 142.994 298.657 144.314 298.657 145.943C298.657 147.571 299.976 148.892 301.602 148.892Z" fill="#E6E6E6"/>
<path d="M254.664 307.131L261.425 307.131L264.641 281.019L254.663 281.02L254.664 307.131Z" fill="#FFB8B8"/>
<path d="M252.94 304.921L266.254 304.921H266.255C267.369 304.921 268.473 305.141 269.502 305.568C270.532 305.995 271.467 306.62 272.255 307.409C273.043 308.198 273.668 309.135 274.094 310.166C274.521 311.196 274.74 312.301 274.74 313.417V313.693L252.941 313.694L252.94 304.921Z" fill="#2F2E41"/>
<path d="M230.4 307.131L237.161 307.131L240.377 281.019L230.399 281.02L230.4 307.131Z" fill="#FFB8B8"/>
<path d="M228.676 304.921L241.99 304.921H241.991C243.105 304.921 244.208 305.141 245.238 305.568C246.267 305.995 247.203 306.62 247.991 307.409C248.779 308.198 249.404 309.135 249.83 310.166C250.256 311.196 250.476 312.301 250.476 313.417V313.693L228.676 313.694L228.676 304.921Z" fill="#2F2E41"/>
<path d="M237.185 299.142H237.184L231.434 299.14C230.791 299.143 230.173 298.894 229.71 298.446C229.247 297.999 228.976 297.389 228.956 296.745L228.775 291.709C227.321 251.432 225.818 209.784 235.126 191.065L235.199 190.918L266.014 189.801L272.201 246.627C272.465 249.051 272.369 251.501 271.914 253.896L263.736 297.048C263.625 297.633 263.308 298.159 262.843 298.53C262.378 298.9 261.795 299.092 261.201 299.068L254.743 298.858C254.405 298.845 254.073 298.762 253.768 298.616C253.463 298.469 253.191 298.262 252.968 298.006C252.746 297.751 252.579 297.452 252.476 297.129C252.373 296.806 252.337 296.466 252.371 296.129L257.444 256.217C257.616 254.495 257.46 252.755 256.983 251.091L250.674 229.007C250.622 228.824 250.509 228.665 250.354 228.556C250.198 228.447 250.01 228.395 249.821 228.408C249.632 228.422 249.453 228.5 249.314 228.629C249.176 228.759 249.086 228.932 249.06 229.121L239.643 296.999C239.558 297.592 239.263 298.135 238.812 298.529C238.361 298.922 237.783 299.14 237.185 299.142Z" fill="#2F2E41"/>
<path d="M240.87 132.989C248.35 132.989 254.414 126.917 254.414 119.426C254.414 111.936 248.35 105.864 240.87 105.864C233.39 105.864 227.326 111.936 227.326 119.426C227.326 126.917 233.39 132.989 240.87 132.989Z" fill="#FFB8B8"/>
<path d="M264.57 193.996H236.543C236.187 193.996 235.835 193.919 235.511 193.771C235.187 193.623 234.899 193.406 234.666 193.137C234.433 192.867 234.261 192.55 234.161 192.207C234.061 191.865 234.036 191.505 234.088 191.152L235.472 181.657L227.342 159.264C226.502 156.952 226.19 154.481 226.429 152.033C226.667 149.585 227.45 147.221 228.72 145.116C229.989 143.01 231.714 141.215 233.766 139.864C235.819 138.512 238.147 137.638 240.581 137.305C244.049 136.821 247.581 137.461 250.659 139.132C253.737 140.803 256.201 143.417 257.688 146.591L259.474 150.395L267.01 191.058C267.077 191.417 267.063 191.786 266.971 192.139C266.879 192.492 266.711 192.82 266.478 193.1C266.245 193.381 265.954 193.606 265.624 193.761C265.294 193.916 264.934 193.996 264.57 193.996Z" fill="#16A34A"/>
<path d="M205.406 217.815C206.25 217.619 207.04 217.24 207.722 216.705C208.403 216.17 208.959 215.491 209.351 214.718C209.742 213.944 209.959 213.094 209.987 212.227C210.015 211.361 209.853 210.498 209.511 209.701L231.35 160.296L218.857 157.146L201.319 206.7C200.019 207.362 199.008 208.479 198.476 209.838C197.944 211.198 197.928 212.705 198.432 214.075C198.936 215.445 199.924 216.583 201.209 217.272C202.495 217.961 203.988 218.155 205.406 217.815Z" fill="#FFB8B8"/>
<path d="M228.394 169.132L216.244 163.437C215.898 163.275 215.591 163.04 215.344 162.749C215.097 162.457 214.916 162.116 214.813 161.748C214.709 161.38 214.686 160.994 214.745 160.616C214.804 160.239 214.944 159.878 215.155 159.56L222.539 148.393C223.378 146.628 224.881 145.267 226.72 144.61C228.558 143.953 230.582 144.052 232.348 144.886C234.113 145.719 235.477 147.22 236.14 149.059C236.802 150.898 236.71 152.925 235.883 154.695L232.065 167.486C231.955 167.852 231.768 168.19 231.517 168.477C231.265 168.765 230.954 168.994 230.606 169.15C230.258 169.307 229.88 169.386 229.498 169.383C229.116 169.379 228.74 169.294 228.394 169.132Z" fill="#16A34A"/>
<path d="M296.508 90.6815C296.771 91.5075 296.851 92.3814 296.741 93.2415C296.631 94.1017 296.334 94.9273 295.871 95.6601C295.408 96.3929 294.79 97.0151 294.06 97.4829C293.331 97.9506 292.508 98.2526 291.65 98.3675L260.454 142.451L251.354 133.32L284.88 92.8585C284.782 91.4017 285.222 89.9598 286.116 88.806C287.009 87.6523 288.295 86.8668 289.728 86.5984C291.161 86.3301 292.643 86.5975 293.893 87.3501C295.142 88.1026 296.072 89.2879 296.508 90.6815Z" fill="#FFB8B8"/>
<path d="M267.668 137.276C267.713 137.656 267.675 138.041 267.558 138.404C267.44 138.768 267.246 139.102 266.987 139.384L257.972 149.217C256.877 150.837 255.185 151.955 253.268 152.328C251.35 152.7 249.364 152.296 247.744 151.204C246.123 150.112 245.002 148.421 244.625 146.503C244.248 144.584 244.646 142.594 245.732 140.968L251.529 128.899C251.694 128.554 251.932 128.25 252.226 128.006C252.519 127.761 252.862 127.583 253.231 127.484C253.599 127.384 253.985 127.365 254.361 127.429C254.738 127.492 255.096 127.635 255.412 127.85L266.52 135.383C266.836 135.598 267.102 135.878 267.301 136.204C267.499 136.531 267.624 136.897 267.668 137.276Z" fill="#16A34A"/>
<path d="M258.666 113.75C258.658 112.522 258.487 111.301 258.16 110.118C255.978 102.044 247.922 97.1982 239.838 98.4143C238.265 97.9629 236.638 97.7347 235.002 97.7363C230.841 97.7364 226.818 99.2261 223.658 101.937C220.498 104.647 218.41 108.4 217.771 112.517L211.241 154.611H246.534L252.233 117.877C252.445 116.512 252.494 115.126 252.381 113.75H258.666Z" fill="#2F2E41"/>
<path d="M302.532 314H186.175C186.028 314 185.888 313.942 185.785 313.838C185.681 313.735 185.623 313.594 185.623 313.448C185.623 313.301 185.681 313.161 185.785 313.057C185.888 312.954 186.028 312.896 186.175 312.896H302.532C302.678 312.896 302.819 312.954 302.922 313.057C303.026 313.161 303.084 313.301 303.084 313.448C303.084 313.594 303.026 313.735 302.922 313.838C302.819 313.942 302.678 314 302.532 314Z" fill="#CCCCCC"/>
<path d="M419.756 42.8866C420.563 42.8089 421.377 42.9092 422.141 43.1806C422.905 43.452 423.6 43.8879 424.178 44.4574C424.756 45.027 425.201 45.7165 425.484 46.4773C425.767 47.2381 425.88 48.0517 425.814 48.8608L443.851 56.8095L435.247 62.3704L419.438 53.9697C418.088 53.7698 416.858 53.0809 415.981 52.0335C415.104 50.9862 414.642 49.6531 414.681 48.287C414.72 46.9209 415.258 45.6166 416.193 44.6212C417.129 43.6259 418.396 43.0087 419.756 42.8866Z" fill="#A0616A"/>
<path d="M492.51 32.9711C499.991 32.9711 506.055 26.8991 506.055 19.409C506.055 11.9188 499.991 5.8468 492.51 5.8468C485.03 5.8468 478.966 11.9188 478.966 19.409C478.966 26.8991 485.03 32.9711 492.51 32.9711Z" fill="#A0616A"/>
<path d="M467.997 212.791L461.236 212.791L458.02 186.679L467.998 186.679L467.997 212.791Z" fill="#A0616A"/>
<path d="M469.721 219.353L447.922 219.352V219.076C447.922 217.961 448.141 216.856 448.568 215.825C448.994 214.794 449.619 213.858 450.407 213.069C451.195 212.28 452.13 211.654 453.16 211.227C454.189 210.8 455.293 210.58 456.407 210.58L469.722 210.581L469.721 219.353Z" fill="#2F2E41"/>
<path d="M496.121 212.791L489.36 212.791L486.144 186.679L496.122 186.679L496.121 212.791Z" fill="#A0616A"/>
<path d="M497.846 219.353L476.046 219.352V219.076C476.046 217.961 476.266 216.856 476.692 215.825C477.118 214.794 477.743 213.858 478.531 213.069C479.319 212.28 480.255 211.654 481.284 211.227C482.313 210.8 483.417 210.58 484.531 210.58L497.846 210.581L497.846 219.353Z" fill="#2F2E41"/>
<path d="M495.801 207.23C495.7 207.23 495.599 207.223 495.498 207.211L485.602 205.991C485.022 205.92 484.486 205.647 484.088 205.219C483.69 204.791 483.456 204.236 483.427 203.652L480.543 138.625C480.533 138.441 480.462 138.265 480.341 138.126C480.22 137.986 480.055 137.891 479.874 137.856C479.693 137.821 479.506 137.848 479.341 137.932C479.177 138.016 479.045 138.152 478.967 138.32L471.559 163.049L470.033 202.771C470.02 203.113 469.936 203.449 469.787 203.758C469.638 204.066 469.427 204.341 469.167 204.563C468.906 204.786 468.603 204.953 468.275 205.052C467.948 205.152 467.603 205.182 467.263 205.142L458.693 204.132C458.081 204.062 457.516 203.765 457.111 203.299C456.706 202.834 456.488 202.234 456.502 201.616L457.23 164.226L463.036 105.533L463.296 105.543L498.601 106.906L498.283 204.753C498.281 205.411 498.018 206.04 497.553 206.505C497.088 206.969 496.458 207.23 495.801 207.23Z" fill="#2F2E41"/>
<path d="M497.263 112.269C497.241 112.269 497.22 112.269 497.198 112.268L461.641 111.335C461.292 111.326 460.949 111.244 460.635 111.093C460.32 110.942 460.041 110.727 459.815 110.461C459.589 110.195 459.422 109.885 459.324 109.55C459.226 109.215 459.2 108.863 459.247 108.517L466.079 58.1625C466.506 54.7625 467.644 51.4908 469.419 48.561C471.194 45.6312 473.566 43.1093 476.381 41.1597C478.856 39.4532 481.668 38.297 484.627 37.7687C487.586 37.2404 490.623 37.3523 493.536 38.0968C505.947 41.246 513.392 54.5906 510.133 67.844L499.673 110.378C499.538 110.917 499.228 111.395 498.791 111.737C498.355 112.079 497.817 112.266 497.263 112.269Z" fill="#3F3D56"/>
<path d="M450.615 72.2831C448.272 72.2859 445.979 71.6037 444.017 70.3202L423.281 56.6979C422.978 56.4986 422.722 56.235 422.531 55.9257C422.34 55.6164 422.22 55.269 422.178 54.908C422.136 54.547 422.173 54.1811 422.288 53.8362C422.402 53.4913 422.591 53.1758 422.841 52.9119L425.965 49.6096C426.305 49.2476 426.747 48.9967 427.232 48.8897C427.717 48.7826 428.223 48.8244 428.684 49.0094L451.846 58.245L473.303 42.902C474.306 42.1846 475.447 41.6836 476.654 41.4306C477.861 41.1776 479.107 41.1781 480.313 41.4321C481.519 41.6862 482.66 42.1882 483.663 42.9064C484.666 43.6247 485.508 44.5435 486.138 45.6047C486.768 46.666 487.171 47.8466 487.322 49.0718C487.472 50.297 487.367 51.5402 487.013 52.7227C486.659 53.9052 486.064 55.0013 485.265 55.9415C484.466 56.8818 483.481 57.6458 482.372 58.1852L455.854 71.0827C454.221 71.8746 452.429 72.285 450.615 72.2831Z" fill="#3F3D56"/>
<path d="M497.204 32.3787C499.514 32.9251 502.302 33.3443 503.953 31.6361C504.246 31.3137 504.507 30.9642 504.734 30.5925L506.893 27.2919C508.547 24.7635 510.23 22.1691 510.93 19.229C511.332 17.5396 511.395 15.7869 511.115 14.0729C510.835 12.3589 510.218 10.7177 509.299 9.24461C508.381 7.77151 507.179 6.4959 505.764 5.49186C504.348 4.48782 502.748 3.77538 501.055 3.39592C497.832 2.67321 494.677 1.42972 491.381 1.65655C488.086 1.88337 484.221 1.80891 481.455 0C481.628 0.80644 482.56 4.36964 482.56 4.36964C482.56 4.36964 478.401 8.19001 477.567 9.14261C478.658 8.65798 479.847 8.43043 481.04 8.47745C482.233 8.52447 483.4 8.84482 484.45 9.41386C485.501 9.98291 486.407 10.7855 487.099 11.76C487.791 12.7344 488.251 13.8548 488.443 15.0351C488.679 16.485 488.54 18.0931 489.401 19.2831C490.219 20.415 491.687 20.8116 492.92 21.4651C494.698 22.4794 496.056 24.0965 496.748 26.0247C497.44 27.953 497.422 30.0655 496.696 31.9813L497.204 32.3787Z" fill="#2F2E41"/>
<path d="M480.941 117.126H368.67C367.259 117.125 365.906 116.562 364.908 115.563C363.91 114.564 363.349 113.209 363.347 111.796V54.6176C363.349 53.2044 363.91 51.8496 364.908 50.8503C365.906 49.851 367.259 49.2889 368.67 49.2874H480.941C482.353 49.2889 483.706 49.851 484.704 50.8503C485.702 51.8496 486.263 53.2044 486.265 54.6176V111.796C486.263 113.209 485.702 114.564 484.704 115.563C483.706 116.562 482.353 117.125 480.941 117.126Z" fill="#CCCCCC"/>
<path d="M479.651 113.25H369.961C369.234 113.249 368.537 112.959 368.023 112.444C367.509 111.93 367.22 111.232 367.219 110.504V55.9097C367.22 55.1817 367.509 54.4837 368.023 53.969C368.537 53.4542 369.234 53.1646 369.961 53.1638H479.651C480.378 53.1646 481.075 53.4542 481.589 53.969C482.103 54.4837 482.393 55.1817 482.393 55.9097V110.504C482.393 111.232 482.103 111.93 481.589 112.444C481.075 112.959 480.378 113.249 479.651 113.25Z" fill="white"/>
<path d="M473.299 127.033L460.962 114.681L476.778 115.081V125.59C476.782 125.995 476.664 126.391 476.44 126.728C476.215 127.064 475.895 127.325 475.52 127.476C475.269 127.581 474.999 127.636 474.727 127.636C474.461 127.635 474.197 127.582 473.952 127.478C473.707 127.375 473.485 127.223 473.299 127.033Z" fill="#CCCCCC"/>
<path d="M466.296 80.7585H410.805C410.121 80.7585 409.464 80.4862 408.98 80.0016C408.496 79.5169 408.224 78.8596 408.224 78.1742C408.224 77.4888 408.496 76.8314 408.98 76.3468C409.464 75.8621 410.121 75.5898 410.805 75.5898H466.296C466.98 75.5898 467.637 75.8621 468.121 76.3468C468.605 76.8314 468.876 77.4888 468.876 78.1742C468.876 78.8596 468.605 79.5169 468.121 80.0016C467.637 80.4862 466.98 80.7585 466.296 80.7585Z" fill="#CCCCCC"/>
<path d="M448.229 69.7751H410.805C410.466 69.7756 410.13 69.7091 409.817 69.5795C409.503 69.4498 409.218 69.2596 408.978 69.0195C408.738 68.7795 408.547 68.4944 408.418 68.1806C408.288 67.8668 408.221 67.5305 408.221 67.1908C408.221 66.8511 408.288 66.5147 408.418 66.2009C408.547 65.8871 408.738 65.6021 408.978 65.362C409.218 65.122 409.503 64.9317 409.817 64.8021C410.13 64.6724 410.466 64.606 410.805 64.6064H448.229C448.914 64.6064 449.57 64.8787 450.054 65.3634C450.538 65.848 450.81 66.5054 450.81 67.1908C450.81 67.8762 450.538 68.5335 450.054 69.0182C449.57 69.5028 448.914 69.7751 448.229 69.7751Z" fill="#CCCCCC"/>
<path d="M387.835 80.7585C392.289 80.7585 395.9 77.1428 395.9 72.6825C395.9 68.2222 392.289 64.6064 387.835 64.6064C383.38 64.6064 379.769 68.2222 379.769 72.6825C379.769 77.1428 383.38 80.7585 387.835 80.7585Z" fill="#16A34A"/>
<path d="M449.195 101.807C450.621 101.807 451.776 100.65 451.776 99.2228C451.776 97.7955 450.621 96.6384 449.195 96.6384C447.77 96.6384 446.614 97.7955 446.614 99.2228C446.614 100.65 447.77 101.807 449.195 101.807Z" fill="#E6E6E6"/>
<path d="M458.228 101.807C459.654 101.807 460.809 100.65 460.809 99.2228C460.809 97.7955 459.654 96.6384 458.228 96.6384C456.803 96.6384 455.647 97.7955 455.647 99.2228C455.647 100.65 456.803 101.807 458.228 101.807Z" fill="#E6E6E6"/>
<path d="M467.262 101.807C468.687 101.807 469.843 100.65 469.843 99.2228C469.843 97.7955 468.687 96.6384 467.262 96.6384C465.836 96.6384 464.681 97.7955 464.681 99.2228C464.681 100.65 465.836 101.807 467.262 101.807Z" fill="#E6E6E6"/>
<path d="M479.203 110.326C479.292 109.519 479.557 108.742 479.978 108.049C480.4 107.355 480.968 106.763 481.643 106.313C482.318 105.864 483.084 105.568 483.885 105.446C484.687 105.325 485.505 105.381 486.283 105.611L497.744 89.5591L501.42 99.1297L489.972 112.905C489.501 114.188 488.575 115.252 487.372 115.898C486.169 116.543 484.771 116.723 483.444 116.405C482.116 116.088 480.951 115.293 480.17 114.173C479.388 113.052 479.044 111.684 479.203 110.326Z" fill="#A0616A"/>
<path d="M492.332 109.46C492.151 109.475 491.97 109.471 491.791 109.447C491.431 109.398 491.086 109.272 490.78 109.075C490.475 108.878 490.216 108.617 490.023 108.309L487.601 104.461C487.335 104.041 487.201 103.551 487.218 103.053C487.234 102.556 487.4 102.075 487.694 101.674L502.364 81.4896L492.829 56.8756C491.977 54.7099 492.009 52.2959 492.918 50.1537C493.827 48.0115 495.541 46.3128 497.689 45.4237C498.903 44.9139 500.214 44.6798 501.529 44.7383C502.844 44.7967 504.13 45.1462 505.294 45.7616C506.458 46.3771 507.471 47.2431 508.261 48.2976C509.051 49.352 509.597 50.5685 509.861 51.8597L515.777 80.7794C516.189 82.8189 516.067 84.9302 515.425 86.909C514.782 88.8877 513.641 90.6668 512.11 92.074L493.796 108.819C493.392 109.189 492.877 109.415 492.332 109.46Z" fill="#3F3D56"/>
<path d="M523.115 220.681H406.758C406.612 220.681 406.471 220.623 406.368 220.52C406.264 220.416 406.206 220.276 406.206 220.129C406.206 219.983 406.264 219.842 406.368 219.739C406.471 219.635 406.612 219.577 406.758 219.577H523.115C523.262 219.577 523.402 219.635 523.505 219.739C523.609 219.842 523.667 219.983 523.667 220.129C523.667 220.276 523.609 220.416 523.505 220.52C523.402 220.623 523.262 220.681 523.115 220.681Z" fill="#CCCCCC"/>
<path d="M141.847 83.256H29.5762C28.1648 83.2544 26.8118 82.6923 25.8138 81.6931C24.8159 80.6938 24.2545 79.339 24.2529 77.9258V20.7475C24.2545 19.3343 24.8159 17.9794 25.8138 16.9802C26.8118 15.9809 28.1648 15.4188 29.5762 15.4172H141.847C143.258 15.4188 144.611 15.9809 145.609 16.9802C146.607 17.9794 147.169 19.3343 147.17 20.7475V77.9258C147.169 79.339 146.607 80.6938 145.609 81.6931C144.611 82.6923 143.258 83.2544 141.847 83.256Z" fill="#CCCCCC"/>
<path d="M140.557 79.3795H30.8666C30.1396 79.3786 29.4426 79.0891 28.9285 78.5743C28.4144 78.0595 28.1252 77.3616 28.1244 76.6336V22.0396C28.1252 21.3116 28.4144 20.6136 28.9285 20.0988C29.4426 19.5841 30.1396 19.2945 30.8666 19.2937H140.557C141.284 19.2945 141.981 19.5841 142.495 20.0988C143.009 20.6136 143.298 21.3116 143.299 22.0396V76.6336C143.298 77.3616 143.009 78.0595 142.495 78.5743C141.981 79.0891 141.284 79.3786 140.557 79.3795Z" fill="white"/>
<path d="M134.204 93.1632L121.868 80.8108L137.684 81.2111V91.7201C137.688 92.1247 137.57 92.5212 137.346 92.8576C137.121 93.194 136.8 93.4548 136.425 93.6057C136.174 93.7109 135.905 93.7655 135.632 93.7662C135.366 93.7653 135.103 93.7116 134.858 93.6081C134.613 93.5046 134.391 93.3534 134.204 93.1632Z" fill="#CCCCCC"/>
<path d="M127.201 46.8884H71.7109C71.0264 46.8884 70.37 46.6161 69.8859 46.1315C69.4019 45.6468 69.13 44.9895 69.13 44.3041C69.13 43.6187 69.4019 42.9613 69.8859 42.4767C70.37 41.992 71.0264 41.7197 71.7109 41.7197H127.201C127.886 41.7197 128.542 41.992 129.026 42.4767C129.51 42.9613 129.782 43.6187 129.782 44.3041C129.782 44.9895 129.51 45.6468 129.026 46.1315C128.542 46.6161 127.886 46.8884 127.201 46.8884Z" fill="#CCCCCC"/>
<path d="M109.135 35.905H71.7109C71.0264 35.905 70.37 35.6327 69.8859 35.1481C69.4019 34.6634 69.13 34.0061 69.13 33.3207C69.13 32.6353 69.4019 31.9779 69.8859 31.4933C70.37 31.0086 71.0264 30.7363 71.7109 30.7363H109.135C109.819 30.7363 110.476 31.0086 110.96 31.4933C111.444 31.9779 111.716 32.6353 111.716 33.3207C111.716 34.0061 111.444 34.6634 110.96 35.1481C110.476 35.6327 109.819 35.905 109.135 35.905Z" fill="#CCCCCC"/>
<path d="M48.7404 46.8884C53.1948 46.8884 56.8058 43.2726 56.8058 38.8124C56.8058 34.3521 53.1948 30.7363 48.7404 30.7363C44.2859 30.7363 40.6749 34.3521 40.6749 38.8124C40.6749 43.2726 44.2859 46.8884 48.7404 46.8884Z" fill="#16A34A"/>
<path d="M110.101 67.937C111.526 67.937 112.682 66.7799 112.682 65.3526C112.682 63.9254 111.526 62.7683 110.101 62.7683C108.675 62.7683 107.52 63.9254 107.52 65.3526C107.52 66.7799 108.675 67.937 110.101 67.937Z" fill="#E6E6E6"/>
<path d="M119.134 67.937C120.559 67.937 121.715 66.7799 121.715 65.3526C121.715 63.9254 120.559 62.7683 119.134 62.7683C117.709 62.7683 116.553 63.9254 116.553 65.3526C116.553 66.7799 117.709 67.937 119.134 67.937Z" fill="#E6E6E6"/>
<path d="M128.167 67.937C129.593 67.937 130.748 66.7799 130.748 65.3526C130.748 63.9254 129.593 62.7683 128.167 62.7683C126.742 62.7683 125.586 63.9254 125.586 65.3526C125.586 66.7799 126.742 67.937 128.167 67.937Z" fill="#E6E6E6"/>
<path d="M137.191 9.92351C136.428 10.1985 135.735 10.6375 135.16 11.2098C134.585 11.7821 134.142 12.4736 133.863 13.2357C133.584 13.9978 133.475 14.812 133.544 15.6208C133.613 16.4296 133.859 17.2134 134.263 17.917L121.348 32.8205L131.499 34.1671L142.207 19.8081C143.343 19.0496 144.161 17.9005 144.507 16.5784C144.853 15.2563 144.702 13.8532 144.084 12.6348C143.466 11.4164 142.422 10.4674 141.152 9.96773C139.882 9.46802 138.472 9.45229 137.191 9.92351Z" fill="#FFB8B8"/>
<path d="M50.9561 15.8901C51.2316 16.6536 51.3365 17.4682 51.2636 18.2767C51.1906 19.0851 50.9415 19.8678 50.5338 20.5694C50.1261 21.271 49.5697 21.8746 48.9039 22.3377C48.238 22.8007 47.4788 23.1119 46.6798 23.2494L43.4659 42.7173L35.9509 35.7518L40.1551 18.3326C40.0134 16.9733 40.3746 15.6092 41.1703 14.4987C41.9659 13.3883 43.1407 12.6086 44.4721 12.3076C45.8035 12.0065 47.1989 12.2049 48.3939 12.8652C49.589 13.5255 50.5006 14.6018 50.9561 15.8901Z" fill="#FFB8B8"/>
<path d="M71.14 212.791L77.9009 212.791L81.117 186.679L71.1389 186.679L71.14 212.791Z" fill="#FFB8B8"/>
<path d="M69.4154 210.581L82.7297 210.58H82.7302C83.8445 210.58 84.9479 210.8 85.9773 211.227C87.0068 211.654 87.9421 212.28 88.7301 213.069C89.518 213.858 90.143 214.794 90.5694 215.825C90.9958 216.856 91.2152 217.961 91.2152 219.076V219.352L69.4158 219.353L69.4154 210.581Z" fill="#2F2E41"/>
<path d="M36.3982 212.791L43.1591 212.791L46.3752 186.679L36.3971 186.679L36.3982 212.791Z" fill="#FFB8B8"/>
<path d="M34.6736 210.581L47.9879 210.58H47.9884C49.1027 210.58 50.206 210.8 51.2355 211.227C52.2649 211.654 53.2003 212.28 53.9882 213.069C54.7761 213.858 55.4011 214.794 55.8276 215.825C56.254 216.856 56.4734 217.961 56.4734 219.076V219.352L34.674 219.353L34.6736 210.581Z" fill="#2F2E41"/>
<path d="M69.7287 34.5159C77.209 34.5159 83.2731 28.4439 83.2731 20.9538C83.2731 13.4636 77.209 7.3916 69.7287 7.3916C62.2483 7.3916 56.1843 13.4636 56.1843 20.9538C56.1843 28.4439 62.2483 34.5159 69.7287 34.5159Z" fill="#FFB8B8"/>
<path d="M68.105 204.117L66.9852 132.661C66.9823 132.459 66.9058 132.265 66.7701 132.115C66.6344 131.966 66.4488 131.871 66.2482 131.849C66.0477 131.827 65.846 131.88 65.6812 131.996C65.5164 132.112 65.3997 132.285 65.3533 132.482L46.9947 202.375C46.8566 202.934 46.5308 203.429 46.072 203.777C45.6132 204.124 45.0491 204.304 44.474 204.285L34.3878 203.853C34.0449 203.838 33.7088 203.752 33.4007 203.601C33.0927 203.45 32.8193 203.236 32.5979 202.973C32.3765 202.711 32.2119 202.405 32.1145 202.075C32.0171 201.746 31.989 201.4 32.032 201.059L47.61 111.242L47.6419 110.988L91.0318 113.044L91.3148 113.057L82.0104 204.266C81.9615 204.891 81.6799 205.474 81.2215 205.9C80.7631 206.326 80.1613 206.564 79.5358 206.566H70.5863C69.935 206.564 69.3107 206.306 68.8469 205.848C68.3831 205.39 68.1168 204.769 68.105 204.117Z" fill="#2F2E41"/>
<path d="M102.375 119.097L39.4111 113.923C39.0311 113.892 38.6633 113.773 38.3364 113.577C38.0095 113.38 37.7322 113.111 37.5262 112.789C37.3201 112.468 37.1907 112.104 37.1481 111.724C37.1055 111.345 37.1508 110.961 37.2805 110.602L47.1961 83.1516L47.7667 50.5712C47.7874 49.3885 48.0424 48.2217 48.517 47.1384C48.9915 46.0552 49.6761 45.0771 50.5311 44.2608C51.3862 43.4446 52.3945 42.8064 53.4977 42.3834C54.6009 41.9604 55.7771 41.761 56.9578 41.7967L61.1451 37.9961H76.4864L77.8222 39.7497L88.4969 41.3922C90.3982 41.6928 92.1527 42.5975 93.5012 43.9729C94.8497 45.3484 95.7207 47.1215 95.9857 49.0306L105.038 116.289C105.085 116.64 105.056 116.997 104.955 117.336C104.853 117.675 104.68 117.988 104.447 118.255C104.215 118.522 103.928 118.735 103.606 118.882C103.284 119.029 102.935 119.105 102.581 119.105C102.513 119.105 102.444 119.103 102.375 119.097Z" fill="#2F2E41"/>
<path d="M90.1075 44.5506L116.954 36.6745L129.105 20.6568C129.439 20.2157 129.911 19.8991 130.446 19.7574C130.981 19.6158 131.548 19.6571 132.056 19.875L139.642 23.1217C139.966 23.2601 140.256 23.4658 140.494 23.7251C140.732 23.9844 140.912 24.2914 141.023 24.6258C141.133 24.9601 141.171 25.3142 141.135 25.6645C141.098 26.0147 140.988 26.3532 140.811 26.6575L131.731 42.2599C130.252 44.8121 128.002 46.8276 125.304 48.0152L93.727 61.9924L90.1075 44.5506Z" fill="#2F2E41"/>
<path d="M38.6007 56.3325C36.9963 55.1752 35.7168 53.6234 34.8858 51.8268C34.0547 50.0302 33.7001 48.0494 33.8561 46.0756L35.0342 30.4447C35.0828 29.8203 35.3644 29.2372 35.823 28.8115C36.2816 28.3857 36.8835 28.1484 37.5089 28.147H37.5309L46.4269 28.2262C46.7913 28.2296 47.1506 28.3132 47.4791 28.4713C47.8076 28.6293 48.0973 28.8578 48.3277 29.1406C48.558 29.4234 48.7233 29.7535 48.8119 30.1075C48.9005 30.4615 48.9101 30.8307 48.8401 31.1888L47.1895 39.6215L58.9687 44.6051L49.0496 63.9277L38.6007 56.3325Z" fill="#2F2E41"/>
<path d="M77.6079 4.69138C77.6079 4.69138 63.4437 -2.94542 55.7233 6.06764C48.0029 15.0807 58.6647 29.1751 58.6647 29.1751L73.8563 31.0936C73.8563 31.0936 74.4077 20.7532 78.0247 20.954C81.6418 21.1547 92.875 8.10662 77.6079 4.69138Z" fill="#2F2E41"/>
<path d="M117.242 220.129H0.884832C0.738576 220.129 0.59831 220.071 0.494892 219.967C0.391473 219.864 0.333374 219.723 0.333374 219.577C0.333374 219.43 0.391473 219.29 0.494892 219.186C0.59831 219.083 0.738576 219.025 0.884832 219.025H117.242C117.389 219.025 117.529 219.083 117.632 219.186C117.736 219.29 117.794 219.43 117.794 219.577C117.794 219.723 117.736 219.864 117.632 219.967C117.529 220.071 117.389 220.129 117.242 220.129Z" fill="#CCCCCC"/>
</g>
<defs>
<clipPath id="clip0_47_3084">
<rect width="523.333" height="314" fill="white" transform="translate(0.333374)"/>
</clipPath>
</defs>
</svg>
