<svg width="356" height="314" viewBox="0 0 356 314" fill="none" xmlns="http://www.w3.org/2000/svg">
<g clip-path="url(#clip0_73_2324)">
<path d="M275.365 201.154C275.064 200.634 274.88 200.054 274.827 199.455C274.774 198.856 274.853 198.252 275.059 197.687C275.264 197.122 275.591 196.609 276.016 196.184C276.441 195.759 276.955 195.432 277.52 195.227L277.308 180.612L283.709 184.701L282.928 197.953C283.21 198.925 283.126 199.967 282.691 200.881C282.256 201.795 281.501 202.518 280.569 202.913C279.637 203.307 278.592 203.346 277.633 203.022C276.674 202.698 275.867 202.033 275.365 201.154Z" fill="#A0616A"/>
<path d="M267.652 121.81C265.754 122.145 264.032 123.128 262.778 124.59C261.523 126.053 260.815 127.905 260.773 129.831C260.68 134.108 262.107 135.703 264.124 136.279C267.853 137.344 273.791 158.89 273.791 158.89C273.791 158.89 274.421 178.985 275.438 177.993C276.455 177.001 275.304 179.316 275.613 180.023C275.922 180.729 274.149 181.787 275.834 182.59C277.52 183.393 276.454 189.785 276.454 189.785L283.912 189.252C283.912 189.252 282.674 184.045 284.358 183.719C286.043 183.393 285.277 181.911 284.594 180.787C283.912 179.664 285.802 178.063 284.857 177.532C283.912 177.001 286.575 156.227 286.575 156.227L276.162 125.588C275.281 124.182 274 123.072 272.484 122.399C270.968 121.726 269.285 121.521 267.652 121.81Z" fill="#EA580C"/>
<path d="M245.027 123.016L250.392 113.613H257.639L263.075 123.548L245.027 123.016Z" fill="#EA580C"/>
<path d="M230.598 38.4617C226.311 24.104 214.202 14.7309 199.569 12.6746C199.408 12.6519 199.256 12.6819 199.095 12.6716C198.888 12.6083 198.677 12.5596 198.463 12.5259C178.34 9.92514 156.373 14.583 138.889 25.5223C122.13 36.0082 102.873 41.9248 83.1049 41.7933C82.491 41.7893 81.8746 41.8026 81.2559 41.8333C66.0425 42.5924 52.6163 53.6667 48.5035 68.2326C47.9637 70.1437 48.9043 71.8513 50.4168 72.9343C53.0744 74.8378 54.8898 76.1719 58.1596 76.8646C63.9942 78.1006 69.8487 79.2372 75.7231 80.2743V56.8748C75.7256 54.6596 76.6068 52.5358 78.1732 50.9694C79.7396 49.403 81.8634 48.5218 84.0787 48.5193H198.852C201.067 48.5218 203.191 49.403 204.758 50.9694C206.324 52.5358 207.205 54.6596 207.208 56.8748V86.0156C208.782 85.5234 210.319 84.9185 211.806 84.2057C217.343 81.4709 222.073 77.3431 225.532 72.2276C232.177 62.5861 233.932 49.6283 230.598 38.4617Z" fill="#F2F2F2"/>
<path d="M182.273 175.403H80.8124C78.4711 175.4 76.2264 174.469 74.5708 172.813C72.9153 171.158 71.984 168.913 71.9813 166.572V127.202C59.6234 123.419 46.6079 122.278 33.7803 123.853C33.5663 123.887 33.3549 123.936 33.1477 123.999C32.9875 124.009 32.8347 123.98 32.6737 124.002C18.0411 126.058 5.93152 135.432 1.64518 149.789C-1.68874 160.956 0.0662914 173.914 6.71111 183.555C10.1702 188.671 14.9004 192.799 20.4372 195.533C28.0476 199.199 36.0578 199.475 44.3641 199.734C69.3036 200.512 94.2671 199.568 119.077 196.91C131.286 195.6 143.445 193.889 155.553 191.776C161.75 190.691 167.927 189.497 174.083 188.192C177.353 187.499 179.169 186.165 181.826 184.262C183.339 183.179 184.279 181.471 183.74 179.56C183.339 178.145 182.849 176.756 182.273 175.403Z" fill="#F2F2F2"/>
<path d="M191.253 163.723H91.6781C89.7562 163.721 87.9137 162.956 86.5547 161.597C85.1958 160.238 84.4313 158.396 84.4291 156.474V63.9372C84.4313 62.0153 85.1958 60.1728 86.5547 58.8138C87.9137 57.4548 89.7562 56.6903 91.6781 56.6881H191.253C193.175 56.6903 195.017 57.4548 196.376 58.8138C197.735 60.1728 198.5 62.0153 198.502 63.9372V156.474C198.5 158.396 197.735 160.238 196.376 161.597C195.017 162.956 193.175 163.721 191.253 163.723Z" fill="#E6E6E6"/>
<path d="M170.295 158.833H96.5689C94.647 158.831 92.8045 158.067 91.4455 156.708C90.0865 155.349 89.3221 153.506 89.3198 151.584V68.8307C89.3221 66.9089 90.0865 65.0663 91.4455 63.7073C92.8045 62.3483 94.647 61.5839 96.5689 61.5817H186.363C188.285 61.5839 190.127 62.3483 191.486 63.7073C192.845 65.0663 193.61 66.9089 193.612 68.8307V135.516C193.605 141.698 191.146 147.625 186.775 151.996C182.404 156.367 176.477 158.826 170.295 158.833Z" fill="white"/>
<path d="M141.466 142.7C159.411 142.7 173.959 128.153 173.959 110.207C173.959 92.2622 159.411 77.7147 141.466 77.7147C123.521 77.7147 108.973 92.2622 108.973 110.207C108.973 128.153 123.521 142.7 141.466 142.7Z" fill="#EA580C"/>
<path d="M155.154 108.573L144.311 95.387C144.017 95.0293 143.648 94.7398 143.231 94.5386C142.814 94.3374 142.358 94.2292 141.895 94.2215C141.432 94.2138 140.973 94.3069 140.549 94.4942C140.126 94.6815 139.748 94.9586 139.442 95.3064L127.847 108.492C127.288 109.129 127.005 109.961 127.06 110.806C127.115 111.652 127.503 112.441 128.139 113C128.775 113.559 129.607 113.843 130.452 113.789C131.297 113.736 132.087 113.349 132.647 112.713L138.646 105.891V122.998C138.646 123.845 138.983 124.658 139.582 125.258C140.182 125.857 140.995 126.194 141.842 126.194C142.69 126.194 143.503 125.857 144.102 125.258C144.702 124.658 145.038 123.845 145.038 122.998V106.335L150.217 112.633C150.755 113.287 151.532 113.701 152.375 113.784C153.219 113.866 154.061 113.61 154.715 113.071C155.37 112.533 155.784 111.756 155.866 110.913C155.948 110.069 155.692 109.227 155.154 108.573Z" fill="white"/>
<path d="M281.49 308.054L276.67 308.054L274.377 289.46L281.491 289.461L281.49 308.054Z" fill="#A0616A"/>
<path d="M281.66 313.083L266.836 313.083V312.895C266.836 311.365 267.444 309.897 268.526 308.815C269.608 307.733 271.076 307.125 272.606 307.125L275.314 305.071L280.366 307.126L281.66 307.126L281.66 313.083Z" fill="#2F2E41"/>
<path d="M245.268 308.054L240.448 308.054L238.155 289.46L245.27 289.461L245.268 308.054Z" fill="#A0616A"/>
<path d="M245.439 313.083L230.615 313.083V312.895C230.615 311.365 231.223 309.897 232.305 308.815C233.387 307.733 234.854 307.125 236.385 307.125L239.093 305.071L244.145 307.126L245.439 307.126L245.439 313.083Z" fill="#2F2E41"/>
<path d="M283.027 292.665C284.786 291.516 283.767 291.591 283.767 291.591C283.767 291.591 279.834 259.705 276.842 250.043L273.38 202.989C273.38 202.989 273.16 203.927 273.38 201.646C273.6 199.365 275.198 200.963 273.6 199.365C272.002 197.767 270.936 196.952 272.002 195.762C273.067 194.571 276.006 192.161 274.27 190.703C272.534 189.244 269.119 179.731 269.119 179.731L235.827 179.997L237.159 179.731C237.159 179.731 233.003 178.189 234.906 180.197C236.81 182.205 233.841 187.121 232.776 191.915C231.893 195.886 229.274 196.94 232.776 197.775C236.277 198.61 233.109 200.977 233.109 200.977C233.109 200.977 227.837 226.073 231.832 242.585C231.832 242.585 234.588 283.426 235.983 286.938C237.378 290.451 237.911 288.32 237.378 290.451C236.846 292.582 235.78 288.853 236.846 292.582C237.427 294.529 237.887 296.511 238.224 298.515L245.448 297.983C245.448 297.983 247.126 292.695 245.448 291.306C243.77 289.918 244.929 293.97 246.747 290.879C248.564 287.788 246.434 288.853 245.901 284.592C245.368 280.33 250.256 260.479 246.747 248.299L253.231 214.121L263.526 249.51C263.526 249.51 268.986 292.731 270.76 294.254C272.534 295.778 271.818 292.08 272.534 295.778C273.259 299.514 274.903 298.524 274.857 298.982C274.36 303.867 283.027 299.048 283.027 299.048C282.942 297.807 282.942 296.561 283.027 295.32C283.188 294.18 281.269 293.815 283.027 292.665Z" fill="#2F2E41"/>
<path d="M239.168 190.85C237.037 190.85 231.178 187.964 232.243 186.744C233.308 185.523 233.308 181.472 233.308 180.302C233.308 179.131 238.102 135.985 238.102 135.985L237.738 125.421C237.716 124.788 237.822 124.157 238.049 123.565C238.277 122.974 238.621 122.434 239.061 121.979C239.501 121.523 240.029 121.16 240.612 120.913C241.195 120.665 241.822 120.538 242.456 120.538L247.158 118.94L260.474 118.407L267.115 120.538C267.774 120.538 268.422 120.707 268.996 121.029C269.571 121.351 270.054 121.815 270.398 122.377C270.742 122.939 270.936 123.58 270.962 124.238C270.987 124.896 270.843 125.55 270.544 126.137C274.067 131.89 275.836 138.546 275.632 145.289C275.479 150.334 272.923 156.495 272.308 162.195C272.253 162.695 272.214 163.192 272.193 163.684C272.187 163.821 271.097 164.505 272.178 164.095C273.258 163.684 271.598 165.133 272.162 166.007C272.726 166.88 273.818 166.345 272.207 167.411C270.595 168.478 274.142 178.781 273.791 179.131C272.726 180.197 270.595 180.729 272.193 182.327C273.791 183.925 275.389 182.86 273.258 184.991C271.128 187.121 264.744 190.85 264.744 190.85L239.168 190.85Z" fill="#3F3D56"/>
<path d="M253.408 112.222C259.74 112.222 264.873 107.089 264.873 100.757C264.873 94.4253 259.74 89.2924 253.408 89.2924C247.076 89.2924 241.943 94.4253 241.943 100.757C241.943 107.089 247.076 112.222 253.408 112.222Z" fill="#A0616A"/>
<path d="M183.581 136.328C184.13 136.085 184.727 135.966 185.328 135.978C185.929 135.99 186.52 136.134 187.06 136.4C187.599 136.665 188.074 137.046 188.451 137.515C188.827 137.984 189.096 138.529 189.239 139.114L203.79 140.49L199.03 146.409L185.942 144.194C184.945 144.369 183.918 144.172 183.057 143.64C182.195 143.109 181.558 142.28 181.267 141.31C180.976 140.34 181.051 139.298 181.477 138.38C181.904 137.461 182.652 136.731 183.581 136.328Z" fill="#A0616A"/>
<path d="M252.572 127.794C252.236 125.897 251.254 124.174 249.791 122.92C248.329 121.666 246.477 120.957 244.551 120.915C240.274 120.822 238.679 122.25 238.103 124.267C237.037 127.995 219.887 141.102 219.887 141.102L205.158 139.508C204.272 139.22 204.692 138.414 201.362 139.097C199.722 138.023 198.661 138.205 197.748 138.706L192.293 138.116L192.826 146.639C192.826 146.639 198.666 145.249 199.75 147.704C200.835 150.158 200.587 150.511 202.946 148.769C205.306 147.027 205.077 148.769 205.077 148.769L222.122 153.031L248.794 136.304C250.199 135.423 251.31 134.142 251.983 132.626C252.656 131.11 252.861 129.427 252.572 127.794Z" fill="#EA580C"/>
<path d="M257.859 110.992L258.61 111.232C256.261 111.429 252.074 112.74 252.484 112.015C252.895 111.291 251.345 108.558 252.101 108.212C252.887 107.936 253.588 107.461 254.136 106.832C254.615 106.161 254.604 105.053 253.885 104.643C253.188 104.238 252.325 104.675 251.632 105.085C250.934 105.49 249.645 99.5347 249.976 97.6757C248.031 96.6104 245.677 98.6505 243.493 98.251C242.156 98.006 241.192 96.9087 240.585 95.6623C241.577 94.7212 242.315 93.545 242.731 92.2425C241.804 92.7096 240.814 93.0381 239.791 93.2173C239.608 92.2501 239.633 91.2549 239.866 90.2983C240.044 89.5347 240.408 88.8269 240.926 88.2377C241.443 87.6486 242.098 87.1964 242.832 86.9212C243.578 86.6742 244.384 86.6883 245.12 86.9614C245.856 87.2345 246.477 87.7501 246.881 88.4233C246.926 87.6982 246.74 86.9775 246.349 86.3649C245.959 85.7523 245.384 85.2794 244.707 85.0142C245.201 84.7581 245.747 84.6195 246.303 84.6093C246.859 84.599 247.41 84.7173 247.913 84.955C248.415 85.1927 248.857 85.5434 249.201 85.9796C249.546 86.4158 249.786 86.9258 249.901 87.4698C252.306 86.2643 255.067 85.9692 257.673 86.6389C260.251 87.3154 263.67 90.1758 263.67 90.1758C269.487 91.4595 269.21 113.576 257.859 110.992Z" fill="#2F2E41"/>
<path d="M318.597 308.512C318.73 308.518 318.861 308.483 318.974 308.412C319.086 308.341 319.173 308.237 319.225 308.115C319.276 307.992 319.288 307.857 319.26 307.727C319.232 307.597 319.164 307.479 319.067 307.389L319.022 307.212L319.04 307.17C319.174 306.854 319.398 306.585 319.684 306.396C319.97 306.207 320.306 306.107 320.649 306.108C320.992 306.11 321.327 306.212 321.611 306.403C321.896 306.594 322.118 306.865 322.25 307.182C322.775 308.446 323.443 309.713 323.608 311.05C323.68 311.64 323.649 312.239 323.517 312.82C324.75 310.13 325.39 307.207 325.394 304.248C325.395 303.506 325.353 302.764 325.271 302.026C325.203 301.421 325.108 300.821 324.987 300.225C324.326 296.989 322.907 293.957 320.847 291.376C319.85 290.832 319.043 289.996 318.536 288.979C318.352 288.614 318.223 288.224 318.151 287.821C318.369 287.244 318.484 286.634 318.49 286.017C318.647 285.78 318.927 285.661 319.099 285.429C319.95 284.275 321.123 284.476 321.736 286.045C323.044 286.705 323.057 287.8 322.254 288.854C321.743 289.524 321.673 290.43 321.225 291.148C321.271 291.207 321.319 291.264 321.365 291.323C322.208 292.407 322.942 293.57 323.558 294.797C323.408 293.423 323.587 292.032 324.08 290.74C324.579 289.536 325.514 288.522 326.338 287.481C326.556 287.201 326.852 286.993 327.189 286.881C327.525 286.77 327.887 286.76 328.229 286.855C328.571 286.949 328.877 287.142 329.109 287.411C329.34 287.679 329.488 288.01 329.531 288.361L329.536 288.407C329.414 288.476 329.294 288.55 329.177 288.627C329.03 288.726 328.916 288.866 328.85 289.03C328.784 289.195 328.769 289.375 328.807 289.548C328.846 289.721 328.935 289.878 329.064 289.999C329.194 290.12 329.356 290.2 329.531 290.227L329.549 290.229C329.506 290.67 329.429 291.108 329.319 291.537C330.376 295.624 328.094 297.113 324.836 297.18C324.764 297.217 324.694 297.254 324.622 297.289C325.24 299.042 325.629 300.868 325.776 302.721C325.86 303.815 325.855 304.913 325.761 306.006L325.767 305.967C326.003 304.752 326.651 303.656 327.602 302.863C329.014 301.704 331.009 301.276 332.532 300.344C332.694 300.24 332.882 300.185 333.075 300.184C333.267 300.184 333.456 300.238 333.618 300.341C333.781 300.444 333.91 300.592 333.991 300.766C334.073 300.941 334.103 301.135 334.077 301.325L334.071 301.366C333.844 301.459 333.623 301.565 333.409 301.685C333.287 301.754 333.167 301.827 333.05 301.905C332.902 302.003 332.788 302.144 332.722 302.308C332.656 302.472 332.642 302.653 332.68 302.826C332.718 302.999 332.808 303.156 332.937 303.277C333.066 303.398 333.229 303.477 333.404 303.504L333.422 303.507L333.459 303.513C333.071 304.439 332.526 305.292 331.849 306.033C331.188 309.602 328.35 309.94 325.313 308.901H325.311C324.978 310.349 324.496 311.758 323.871 313.106H318.726C318.708 313.049 318.691 312.99 318.674 312.932C319.151 312.962 319.629 312.934 320.098 312.848C319.716 312.379 319.335 311.907 318.953 311.439C318.944 311.43 318.936 311.421 318.929 311.411C318.735 311.171 318.54 310.933 318.346 310.694C318.336 309.959 318.42 309.225 318.597 308.512Z" fill="#F2F2F2"/>
<path d="M147.298 313.836L354.892 314C355.06 314 355.222 313.933 355.341 313.814C355.46 313.695 355.527 313.534 355.527 313.366C355.527 313.198 355.46 313.036 355.341 312.917C355.222 312.798 355.06 312.732 354.892 312.732L147.298 312.568C147.13 312.568 146.969 312.635 146.85 312.754C146.731 312.873 146.664 313.034 146.664 313.202C146.664 313.37 146.731 313.532 146.85 313.651C146.969 313.77 147.13 313.836 147.298 313.836Z" fill="#CACACA"/>
<path d="M136.692 224.941C135.202 224.941 133.745 224.499 132.506 223.671C131.267 222.843 130.301 221.666 129.731 220.289C129.161 218.913 129.011 217.398 129.302 215.936C129.593 214.474 130.31 213.132 131.364 212.078C132.418 211.024 133.761 210.307 135.222 210.016C136.684 209.725 138.199 209.874 139.576 210.445C140.952 211.015 142.129 211.981 142.957 213.22C143.785 214.459 144.227 215.916 144.227 217.406C144.225 219.404 143.43 221.319 142.018 222.731C140.605 224.144 138.69 224.939 136.692 224.941ZM136.692 210.936C135.413 210.936 134.162 211.316 133.098 212.027C132.034 212.738 131.205 213.748 130.715 214.93C130.225 216.112 130.097 217.413 130.347 218.668C130.597 219.923 131.213 221.076 132.118 221.981C133.022 222.885 134.175 223.502 135.43 223.751C136.685 224.001 137.986 223.873 139.168 223.383C140.35 222.893 141.361 222.064 142.071 221C142.782 219.936 143.162 218.686 143.162 217.406C143.16 215.691 142.478 214.046 141.265 212.833C140.052 211.621 138.407 210.938 136.692 210.936Z" fill="#F2F2F2"/>
<path d="M139.642 217.054L137.305 214.212C137.242 214.135 137.162 214.072 137.073 214.029C136.983 213.986 136.884 213.962 136.785 213.961C136.685 213.959 136.586 213.979 136.495 214.02C136.403 214.06 136.322 214.12 136.256 214.195L133.757 217.036C133.638 217.173 133.578 217.352 133.59 217.534C133.602 217.716 133.685 217.885 133.822 218.005C133.959 218.125 134.137 218.187 134.319 218.176C134.501 218.164 134.671 218.082 134.792 217.946L136.084 216.476V220.162C136.084 220.345 136.157 220.52 136.286 220.649C136.415 220.778 136.591 220.851 136.773 220.851C136.956 220.851 137.131 220.778 137.26 220.649C137.389 220.52 137.462 220.345 137.462 220.162V216.571L138.578 217.928C138.694 218.07 138.861 218.159 139.043 218.176C139.225 218.194 139.406 218.139 139.547 218.023C139.688 217.907 139.778 217.74 139.795 217.558C139.813 217.376 139.758 217.195 139.642 217.054Z" fill="#F2F2F2"/>
<path d="M222.452 113.613C220.961 113.613 219.505 113.171 218.265 112.343C217.026 111.515 216.061 110.339 215.49 108.962C214.92 107.585 214.771 106.07 215.062 104.608C215.352 103.147 216.07 101.804 217.124 100.75C218.177 99.6966 219.52 98.979 220.982 98.6882C222.443 98.3975 223.958 98.5467 225.335 99.117C226.712 99.6873 227.889 100.653 228.717 101.892C229.545 103.131 229.986 104.588 229.986 106.078C229.984 108.076 229.19 109.991 227.777 111.404C226.364 112.816 224.449 113.611 222.452 113.613ZM222.452 99.6088C221.172 99.6088 219.921 99.9882 218.857 100.699C217.793 101.41 216.964 102.42 216.475 103.603C215.985 104.785 215.857 106.085 216.106 107.34C216.356 108.595 216.972 109.748 217.877 110.653C218.782 111.558 219.934 112.174 221.189 112.424C222.444 112.673 223.745 112.545 224.927 112.055C226.11 111.566 227.12 110.736 227.831 109.673C228.542 108.609 228.921 107.358 228.921 106.078C228.919 104.363 228.237 102.719 227.024 101.506C225.811 100.293 224.167 99.6107 222.452 99.6088Z" fill="#F2F2F2"/>
<path d="M225.401 105.726L223.065 102.884C223.001 102.807 222.922 102.745 222.832 102.702C222.742 102.658 222.644 102.635 222.544 102.633C222.444 102.632 222.345 102.652 222.254 102.692C222.163 102.732 222.081 102.792 222.016 102.867L219.517 105.709C219.397 105.846 219.337 106.025 219.349 106.207C219.361 106.388 219.445 106.558 219.582 106.678C219.718 106.798 219.897 106.859 220.079 106.848C220.26 106.837 220.43 106.754 220.551 106.618L221.844 105.148V108.835C221.844 109.017 221.917 109.193 222.046 109.322C222.175 109.451 222.35 109.523 222.533 109.523C222.715 109.523 222.891 109.451 223.02 109.322C223.149 109.193 223.221 109.017 223.221 108.835V105.244L224.337 106.601C224.453 106.742 224.621 106.831 224.803 106.849C224.984 106.867 225.166 106.811 225.307 106.695C225.448 106.579 225.537 106.412 225.555 106.23C225.573 106.048 225.517 105.867 225.401 105.726Z" fill="#F2F2F2"/>
<path d="M52.5307 107.221C51.0405 107.221 49.5837 106.779 48.3446 105.951C47.1055 105.123 46.1397 103.947 45.5694 102.57C44.9991 101.193 44.8499 99.678 45.1406 98.2164C45.4314 96.7547 46.149 95.4122 47.2028 94.3584C48.2565 93.3046 49.5991 92.587 51.0607 92.2963C52.5223 92.0055 54.0374 92.1548 55.4142 92.725C56.791 93.2953 57.9678 94.2611 58.7957 95.5002C59.6236 96.7393 60.0656 98.1961 60.0656 99.6863C60.0633 101.684 59.2687 103.599 57.8562 105.012C56.4436 106.424 54.5284 107.219 52.5307 107.221ZM52.5307 93.2168C51.2512 93.2168 50.0003 93.5963 48.9364 94.3071C47.8725 95.018 47.0433 96.0284 46.5536 97.2106C46.064 98.3927 45.9359 99.6935 46.1855 100.948C46.4351 102.203 47.0513 103.356 47.9561 104.261C48.8608 105.166 50.0136 105.782 51.2686 106.032C52.5235 106.281 53.8243 106.153 55.0065 105.663C56.1886 105.174 57.199 104.345 57.9099 103.281C58.6208 102.217 59.0002 100.966 59.0002 99.6863C58.9983 97.9711 58.3161 96.3267 57.1033 95.1138C55.8904 93.901 54.246 93.2187 52.5307 93.2168Z" fill="#F2F2F2"/>
<path d="M55.4804 99.3339L53.1437 96.4924C53.0803 96.4153 53.0009 96.3529 52.911 96.3095C52.8211 96.2662 52.7229 96.2428 52.6231 96.2412C52.5233 96.2395 52.4244 96.2596 52.3331 96.2999C52.2418 96.3403 52.1604 96.4 52.0945 96.475L49.5957 99.3165C49.4762 99.4539 49.416 99.6329 49.4282 99.8145C49.4403 99.9961 49.5239 100.165 49.6606 100.286C49.7972 100.406 49.9759 100.467 50.1576 100.456C50.3393 100.445 50.5091 100.362 50.6301 100.226L51.923 98.756V102.443C51.923 102.625 51.9955 102.8 52.1247 102.93C52.2538 103.059 52.429 103.131 52.6117 103.131C52.7944 103.131 52.9695 103.059 53.0987 102.93C53.2279 102.8 53.3004 102.625 53.3004 102.443V98.8518L54.4164 100.209C54.5324 100.35 54.6997 100.439 54.8815 100.457C55.0634 100.475 55.2448 100.419 55.3859 100.303C55.5269 100.187 55.6162 100.02 55.6339 99.8382C55.6516 99.6564 55.5964 99.475 55.4804 99.3339Z" fill="#F2F2F2"/>
<path d="M112.722 15.0697C111.232 15.0697 109.775 14.6278 108.536 13.7999C107.297 12.9719 106.331 11.7951 105.761 10.4183C105.191 9.04151 105.041 7.5265 105.332 6.06489C105.623 4.60327 106.34 3.26068 107.394 2.20691C108.448 1.15315 109.791 0.43552 111.252 0.144786C112.714 -0.145949 114.229 0.00325953 115.606 0.573555C116.982 1.14385 118.159 2.10962 118.987 3.34872C119.815 4.58782 120.257 6.0446 120.257 7.53486C120.255 9.53253 119.46 11.4477 118.048 12.8603C116.635 14.2729 114.72 15.0674 112.722 15.0697ZM112.722 1.06535C111.443 1.06535 110.192 1.44478 109.128 2.15566C108.064 2.86654 107.235 3.87694 106.745 5.05909C106.255 6.24124 106.127 7.54205 106.377 8.79701C106.627 10.052 107.243 11.2047 108.147 12.1095C109.052 13.0143 110.205 13.6305 111.46 13.8801C112.715 14.1297 114.016 14.0016 115.198 13.5119C116.38 13.0223 117.39 12.193 118.101 11.1291C118.812 10.0652 119.192 8.81441 119.192 7.53486C119.19 5.81962 118.508 4.17518 117.295 2.96232C116.082 1.74946 114.437 1.06725 112.722 1.06535Z" fill="#F2F2F2"/>
<path d="M115.672 7.18251L113.335 4.34098C113.272 4.2639 113.192 4.20151 113.102 4.15815C113.013 4.11478 112.914 4.09147 112.815 4.08982C112.715 4.08816 112.616 4.10821 112.525 4.14858C112.433 4.18895 112.352 4.24866 112.286 4.3236L109.787 7.16513C109.668 7.30248 109.607 7.48152 109.62 7.66312C109.632 7.84472 109.715 8.01412 109.852 8.13431C109.989 8.25451 110.167 8.31572 110.349 8.30458C110.531 8.29343 110.701 8.21083 110.821 8.07483L112.114 6.60467V10.2912C112.114 10.4739 112.187 10.649 112.316 10.7782C112.445 10.9074 112.62 10.9799 112.803 10.9799C112.986 10.9799 113.161 10.9074 113.29 10.7782C113.419 10.649 113.492 10.4739 113.492 10.2912V6.70042L114.608 8.05748C114.724 8.19857 114.891 8.28779 115.073 8.30551C115.255 8.32323 115.436 8.26801 115.577 8.15198C115.718 8.03596 115.808 7.86863 115.825 7.68683C115.843 7.50502 115.788 7.3236 115.672 7.18251Z" fill="#F2F2F2"/>
<path d="M32.2894 163.151C30.7991 163.151 29.3423 162.709 28.1031 161.881C26.864 161.053 25.8982 159.877 25.3279 158.5C24.7575 157.123 24.6083 155.608 24.8991 154.146C25.1898 152.685 25.9074 151.342 26.9612 150.288C28.015 149.234 29.3576 148.517 30.8193 148.226C32.2809 147.935 33.796 148.085 35.1728 148.655C36.5497 149.225 37.7265 150.191 38.5544 151.43C39.3824 152.669 39.8243 154.126 39.8242 155.616C39.822 157.614 39.0274 159.529 37.6148 160.942C36.2023 162.354 34.2871 163.149 32.2894 163.151ZM32.2894 149.147C31.0098 149.147 29.759 149.526 28.695 150.237C27.6311 150.948 26.8018 151.958 26.3121 153.14C25.8224 154.322 25.6943 155.623 25.9439 156.878C26.1935 158.133 26.8097 159.286 27.7144 160.191C28.6192 161.096 29.772 161.712 31.027 161.962C32.282 162.211 33.5828 162.083 34.765 161.594C35.9471 161.104 36.9576 160.275 37.6685 159.211C38.3794 158.147 38.7589 156.896 38.7589 155.616C38.757 153.901 38.0748 152.257 36.8619 151.044C35.6491 149.831 34.0047 149.149 32.2894 149.147Z" fill="white"/>
<path d="M35.2391 155.264L32.9024 152.423C32.839 152.345 32.7596 152.283 32.6697 152.24C32.5798 152.196 32.4816 152.173 32.3818 152.171C32.282 152.17 32.183 152.19 32.0918 152.23C32.0005 152.27 31.9191 152.33 31.8532 152.405L29.3543 155.247C29.2349 155.384 29.1747 155.563 29.1868 155.745C29.199 155.926 29.2826 156.096 29.4192 156.216C29.5559 156.336 29.7346 156.397 29.9163 156.386C30.0979 156.375 30.2678 156.292 30.3888 156.156L31.6816 154.686V158.373C31.6816 158.555 31.7542 158.731 31.8833 158.86C32.0125 158.989 32.1877 159.061 32.3704 159.061C32.553 159.061 32.7282 158.989 32.8574 158.86C32.9865 158.731 33.0591 158.555 33.0591 158.373V154.782L34.1751 156.139C34.2911 156.28 34.4584 156.369 34.6402 156.387C34.822 156.405 35.0034 156.35 35.1445 156.234C35.2856 156.118 35.3748 155.95 35.3925 155.768C35.4103 155.587 35.3551 155.405 35.2391 155.264Z" fill="white"/>
<path d="M195.286 36.9091C193.795 36.9091 192.338 36.4672 191.099 35.6393C189.86 34.8113 188.894 33.6345 188.324 32.2577C187.754 30.8808 187.605 29.3658 187.895 27.9041C188.186 26.4425 188.904 25.0999 189.957 24.0461C191.011 22.9923 192.354 22.2746 193.816 21.9839C195.277 21.6932 196.792 21.8424 198.169 22.4127C199.546 22.983 200.723 23.9488 201.551 25.188C202.379 26.4271 202.82 27.8839 202.82 29.3742C202.818 31.3719 202.024 33.2871 200.611 34.6997C199.198 36.1122 197.283 36.9068 195.286 36.9091ZM195.286 22.9044C194.006 22.9044 192.755 23.2838 191.691 23.9947C190.627 24.7056 189.798 25.716 189.308 26.8982C188.819 28.0803 188.691 29.3811 188.94 30.6361C189.19 31.8911 189.806 33.0439 190.711 33.9487C191.615 34.8535 192.768 35.4697 194.023 35.7194C195.278 35.9691 196.579 35.841 197.761 35.3513C198.943 34.8617 199.954 34.0325 200.665 32.9686C201.376 31.9046 201.755 30.6538 201.755 29.3742C201.753 27.659 201.071 26.0145 199.858 24.8016C198.645 23.5887 197.001 22.9064 195.286 22.9044Z" fill="white"/>
<path d="M198.235 29.0219L195.899 26.1803C195.835 26.1033 195.756 26.0409 195.666 25.9975C195.576 25.9541 195.478 25.9308 195.378 25.9292C195.278 25.9275 195.179 25.9476 195.088 25.9879C194.997 26.0283 194.915 26.088 194.85 26.163L192.351 29.0045C192.231 29.1418 192.171 29.3209 192.183 29.5025C192.195 29.6841 192.279 29.8535 192.416 29.9737C192.552 30.0939 192.731 30.1551 192.913 30.1439C193.094 30.1328 193.264 30.0502 193.385 29.9142L194.678 28.444V32.1306C194.678 32.3132 194.751 32.4884 194.88 32.6176C195.009 32.7467 195.184 32.8193 195.367 32.8193C195.549 32.8193 195.725 32.7467 195.854 32.6176C195.983 32.4884 196.055 32.3132 196.055 32.1306V28.5398L197.171 29.8968C197.287 30.0379 197.455 30.1271 197.637 30.1449C197.818 30.1626 198 30.1074 198.141 29.9913C198.282 29.8753 198.371 29.708 198.389 29.5262C198.407 29.3444 198.351 29.163 198.235 29.0219Z" fill="white"/>
</g>
<defs>
<clipPath id="clip0_73_2324">
<rect width="355.526" height="314" fill="white"/>
</clipPath>
</defs>
</svg>
